<svg xmlns="http://www.w3.org/2000/svg" xml:space="preserve" fill-rule="evenodd" stroke-linejoin="round" stroke-miterlimit="2" clip-rule="evenodd" viewBox="0 0 56 56">
  <path d="M39 1H7.7c-.4 0-.8.2-1 .4-.3.3-.5.6-.5 1v51.1c0 .8.7 1.5 1.5 1.5h38.7c.4 0 .7-.2 1-.4.3-.3.4-.7.4-1V10h-6.5A2.5 2.5 0 0 1 39 7.5V1Zm10.7 7.8Zm-.1-.1Zm-9 31.6c1.2 0 1.2 1.8 0 1.8h-27c-1.1 0-1.1-1.8 0-1.8h27ZM30.8 46c1.2 0 1.2 1.8 0 1.8H13.6c-1.1 0-1.1-1.8 0-1.8h17.2ZM23.5 8.2a10.8 10.8 0 1 1 0 21.7 10.8 10.8 0 0 1 0-21.7Zm17.1 26.4c1.2 0 1.2 1.8 0 1.8h-27c-1.1 0-1.1-1.8 0-1.8h27Zm-11-9a9 9 0 1 1-7-15.6v9c0 .3.2.5.4.7l6.7 6Zm2.8-8.2a9 9 0 0 1-1.5 6.9l-5.5-4.9 7-2Zm-8 .4V10a9 9 0 0 1 7.5 5.7l-7.5 2.1ZM40.7 2.3l6 5.9h-5.3a.7.7 0 0 1-.7-.7V2.3Z"/>
</svg>
