<svg xmlns="http://www.w3.org/2000/svg" xml:space="preserve" fill-rule="evenodd" stroke-linejoin="round" stroke-miterlimit="2" clip-rule="evenodd" viewBox="0 0 56 56">
  <path d="M50.5 10v27.8c0 2.7-1.4 5.1-3.4 6.6V10.1c0-2.6-2.2-4.6-4.9-4.6H14.3L10.1 10h25.4a7 7 0 0 1 7 7v30a7 7 0 0 1-7 6.9H6a.6.6 0 0 1-.5-.6V10.1L12.8 2h29.4c4.6 0 8.3 3.6 8.3 8ZM27.7 28.3c-6.3 5.2-11.9 10.1-13.4 18.5 6-4.2 14-5.2 18.3-10.3 4.4-5.2 3.6-12.4 3.9-19.7A73 73 0 0 1 21 21.6c-9.9 2.2-14 12.9-9 22.8 5.5-10 9.6-14.3 15.6-16.2Z"/>
</svg>
