<svg xmlns="http://www.w3.org/2000/svg" xml:space="preserve" fill-rule="evenodd" stroke-linejoin="round" stroke-miterlimit="2" clip-rule="evenodd" viewBox="0 0 56 56">
  <path fill-rule="nonzero" d="M16.9 33.6v16.7c0 2-1.7 3.7-3.8 3.7H5.7c-2 0-3.7-1.7-3.7-3.7V33.6c0-2 1.7-3.7 3.7-3.7h7.4c2 0 3.8 1.6 3.8 3.7ZM31.7 15h-7.4c-2 0-3.7 1.7-3.7 3.7v31.6c0 2 1.6 3.7 3.7 3.7h7.4c2 0 3.7-1.7 3.7-3.7V18.7c0-2-1.6-3.7-3.7-3.7ZM50.3 2h-7.4c-2 0-3.8 1.7-3.8 3.7v44.6c0 2 1.7 3.7 3.8 3.7h7.4c2 0 3.7-1.7 3.7-3.7V5.7c0-2-1.7-3.7-3.7-3.7Zm-45 10.4 2.3-3v14.9a1.9 1.9 0 1 0 3.7 0V9.4l2.2 3a1.9 1.9 0 0 0 2.6.4c.8-.6 1-1.8.4-2.6l-5.6-7.5a2 2 0 0 0-3 0l-5.5 7.5a1.9 1.9 0 1 0 3 2.2Z"/>
</svg>
