<svg xmlns="http://www.w3.org/2000/svg" xml:space="preserve" fill-rule="evenodd" stroke-linejoin="round" stroke-miterlimit="2" clip-rule="evenodd" viewBox="0 0 56 56">
  <path d="m13.3 55.8 4.6-7.2c-6-9.1-6.4-17.4-4.5-21.4.9-2 2.4-3.2 4-3.1.7 0 1.4.5 1.9 1.4.5 1 .9 2.5 1 4.4.5 4.7 0 11.4-.5 15.3 6-11.6 7.9-21.4 8-22.7a9.7 9.7 0 0 1-4-3 24 24 0 0 1-4.7-9.3 7.6 7.6 0 0 1-.1-3.5c.2-.7.6-1.3 1.2-1.7 1.4-.9 2.8-.3 4 1.1 1 1.3 2 3.4 2.7 5.1.3-2.2 1-5 1.8-7.3 1-2 2.1-3.5 3.5-3.8 1-.3 1.8.1 2.2 1 .4.5.6 1.4.6 2.5.1 2.5-.5 6.2-1 8.9 1.2-1.5 2.7-3.1 4.2-4.1 1.6-1 3.2-1.4 4.5-.4.5.4.8 1 1 1.8 0 .9-.3 2-1 3.3a21.2 21.2 0 0 1-7.3 7.7c-2 1.2-4 2-6 2A69 69 0 0 1 26.7 33c1.2-1.6 2.8-3.4 4.5-5 1.9-1.7 3.8-3 5.7-3.4 1.1-.2 2 0 2.5.5.6.5.9 1.3.8 2.3 0 1.1-.6 2.6-1.7 4-2.2 3.2-6.9 6.7-14 7.4-1.6 3.8-6.8 12.7-9.5 17.1l-1.7-.2Z"/>
</svg>
