<svg xmlns="http://www.w3.org/2000/svg" xml:space="preserve" fill-rule="evenodd" stroke-linejoin="round" stroke-miterlimit="2" clip-rule="evenodd" viewBox="0 0 56 56">
  <path fill-rule="nonzero" d="M16.44 39.56H2V51.1A2.9 2.9 0 0 0 4.89 54h11.55V39.56ZM35.51 54V39.56H20.5V54H35.5ZM54 39.56H39.56V54H51.1A2.9 2.9 0 0 0 54 51.11V39.56Zm0-4.05V20.5H39.56V35.5H54ZM2 20.5V35.5h14.44V20.5H2Zm33.51 0H20.5V35.5H35.5V20.5ZM39.56 2v14.44H54V4.9A2.9 2.9 0 0 0 51.11 2H39.56ZM16.44 16.44V2H4.9A2.9 2.9 0 0 0 2 4.89v11.55h14.44ZM35.51 2H20.5v14.44H35.5V2Z"/>
</svg>
