<svg xmlns="http://www.w3.org/2000/svg" xml:space="preserve" fill-rule="evenodd" stroke-linejoin="round" stroke-miterlimit="2" clip-rule="evenodd" viewBox="0 0 56 56">
  <path fill-rule="nonzero" d="M24.2 12.8c-.3.8-.7 1.5-1.2 2.1-1 1.3-2 2.3-3 3.2v.2c-3.1 2.5-4.5 2.2-4.8 3.4-.2.7.2 1.4.9 1.3 1-.3 1.3-1.3 3.1-2.3A25.8 25.8 0 0 1 41 22l.5.1c.5 0 1-.2 1.8-1.4.4-.6 2-2.5 4-2.5.6 0 1.2.2 1.8.6a7.7 7.7 0 0 1 2.6 9 .7.7 0 0 1-1.2.1l-.6-1a8.3 8.3 0 0 1-1.4 3.4.7.7 0 0 1-1.2-.3l-.3-1.6-1.5 3.3a13.2 13.2 0 0 1-7.1 8l-.2.1c-1 .5-4.8 2.9-8.3 9.7l-1.2 2.3H32c.1 0 .9 0 1.5.6.2.2.5.7.5 1.4 0 .3-.3.5-.6.5a.5.5 0 0 1-.5-.5l-.2-.6c-.3-.3-.7-.3-.7-.3h-.5a1.4 1.4 0 0 1-1.4 1.7H20.1a1.4 1.4 0 0 1-1.4-1.7h-.6c-.2 0-.5 0-.7.3l-.2.6c0 .3-.2.5-.5.5a.5.5 0 0 1-.6-.5c0-.7.3-1.2.5-1.4.6-.6 1.4-.6 1.5-.6h6.8l2.2-4.2c.1-.2 1.2-3-.2-4.8-.6-.8-2-1.2-3.2-1.6l-.4-.2a14.4 14.4 0 0 1-6.2-3.2c-4.7-.3-10.2-2.3-12.2-9.1-2.2-7.5 3.5-12.2 6-14a23.9 23.9 0 0 1 2.7-1.7c.3-.3.6-.7.4-1.3-.4-1.2-2.6-.8-3.6-.3-2 .9-3.5 1.2-4.4 1l.2.3.2.5c0 .4-.3.7-.7.7-.2 0-.3 0-.5-.2A4.9 4.9 0 0 1 5 6.8c.9-1.1 2-1.4 2.7-1.4 1 0 1.6.4 1.7.5.2.1.4.3.4.5.4 0 .9 0 1.4-.3 1.2-.6 1.5-1.3 2.2-1.8A.7.7 0 0 1 13 4c0-.2-.1-.8.5-1.5.7-.8 1.9-.9 2.1-.9h.5c1 0 3 .2 4.8 1.4a8.3 8.3 0 0 1 2.8 2.5 7.8 7.8 0 0 1 .5 7.3Z"/>
</svg>
