<?xml version="1.0" encoding="UTF-8" standalone="no"?>
<!DOCTYPE svg PUBLIC "-//W3C//DTD SVG 1.1//EN" "http://www.w3.org/Graphics/SVG/1.1/DTD/svg11.dtd">
<svg width="100%" height="100%" viewBox="0 0 126 121" version="1.1" xmlns="http://www.w3.org/2000/svg" xmlns:xlink="http://www.w3.org/1999/xlink" xml:space="preserve" xmlns:serif="http://www.serif.com/" style="fill-rule:evenodd;clip-rule:evenodd;stroke-linejoin:round;stroke-miterlimit:2;">
    <g transform="matrix(1,0,0,1,-600.903,-120.137)">
        <g transform="matrix(1,0,0,1,22.5955,-41)">
            <g transform="matrix(1.25131,0,0,1.25131,-488.06,-48.8098)">
                <g transform="matrix(0.574951,0,0,0.574951,804.182,112.213)">
                    <path d="M131.514,228.809L98.514,228.809C90.229,228.809 83.514,222.094 83.514,213.809L83.514,112C83.514,107.172 85.795,102.876 89.338,100.133C91.941,97.957 95.293,96.648 98.951,96.648L242.951,96.648C251.23,96.648 257.951,103.369 257.951,111.648C257.951,113.767 257.511,115.785 256.716,117.613C254.492,123.115 249.098,127 242.804,127L113.951,127L113.951,198.457L131.514,198.457L131.514,180.088C131.514,175.26 133.795,170.964 137.338,168.221C139.941,166.045 143.293,164.736 146.951,164.736L170.951,164.736C179.23,164.736 185.951,171.457 185.951,179.736C185.951,181.855 185.511,183.873 184.716,185.701C182.492,191.203 177.098,195.088 170.804,195.088L161.951,195.088L161.951,233.648L216.598,233.648C222.114,233.648 226.939,236.632 229.545,241.073C230.981,243.373 231.811,246.091 231.811,249C231.811,257.279 225.09,264 216.811,264L146.514,264C138.229,264 131.514,257.284 131.514,249L131.514,228.809Z" style="fill:rgb(26,26,26);"/>
                </g>
                <g transform="matrix(1,0,0,1,12.9718,0)">
                    <path d="M856.727,185.232L856.727,167.781L930.896,167.781C935.655,167.781 939.52,171.645 939.52,176.405C939.52,177.624 939.267,178.783 938.81,179.835C937.531,182.998 934.43,185.232 930.811,185.232L856.727,185.232Z" style="fill:url(#_Linear1);"/>
                </g>
                <g transform="matrix(1,0,0,1.17483,33.0583,-50.3365)">
                    <path d="M836.632,250.338L836.632,235.484L846.716,235.484L846.716,226.494C846.716,224.131 848.027,222.029 850.065,220.686C851.561,219.622 853.489,218.981 855.592,218.981L869.39,218.981C874.15,218.981 878.015,222.27 878.015,226.322C878.015,227.359 877.761,228.346 877.305,229.241C876.026,231.933 872.925,233.835 869.306,233.835L864.216,233.835L864.216,252.706L895.635,252.706C898.807,252.706 901.581,254.166 903.079,256.339C903.905,257.465 904.382,258.795 904.382,260.219C904.382,264.27 900.518,267.56 895.758,267.56L855.34,267.56C850.577,267.56 846.716,264.273 846.716,260.219L846.716,250.338L836.632,250.338Z" style="fill:url(#_Linear2);"/>
                </g>
                <g transform="matrix(1,0,0,1,60,0)">
                    <g transform="matrix(1,0,0,1,-252.368,0)">
                        <path d="M1062.05,226.316L1089.64,226.316L1089.64,246.549L1121.06,246.549C1124.23,246.549 1127.01,248.265 1128.51,250.818C1129.33,252.141 1129.81,253.703 1129.81,255.376C1129.81,260.136 1125.94,264 1121.18,264L1080.77,264C1076,264 1072.14,260.139 1072.14,255.376L1072.14,243.767L1062.05,243.767L1062.05,226.316Z" style="fill:url(#_Linear3);"/>
                    </g>
                    <g transform="matrix(1,0,0,1,-142.549,0)">
                        <path d="M952.226,243.767L952.226,226.316L962.323,226.316L962.323,215.755C962.323,212.979 963.635,210.509 965.672,208.932C967.169,207.681 969.096,206.928 971.199,206.928L984.998,206.928C989.758,206.928 993.622,210.792 993.622,215.552C993.622,216.771 993.369,217.931 992.912,218.982C991.633,222.145 988.532,224.379 984.913,224.379L979.823,224.379L979.823,246.549L962.323,246.549L962.323,243.767L952.226,243.767Z" style="fill:url(#_Linear4);"/>
                    </g>
                </g>
            </g>
            <g transform="matrix(1.25131,0,0,1.25131,-488.06,-48.8098)">
                <g transform="matrix(0.574951,0,0,0.574951,804.182,112.213)">
                    <path d="M131.514,228.809L98.514,228.809C90.229,228.809 83.514,222.094 83.514,213.809L83.514,112C83.514,107.172 85.795,102.876 89.338,100.133C91.941,97.957 95.293,96.648 98.951,96.648L242.951,96.648C251.23,96.648 257.951,103.369 257.951,111.648C257.951,113.767 257.511,115.785 256.716,117.613C254.492,123.115 249.098,127 242.804,127L113.951,127L113.951,198.457L131.514,198.457L131.514,180.088C131.514,175.26 133.795,170.964 137.338,168.221C139.941,166.045 143.293,164.736 146.951,164.736L170.951,164.736C179.23,164.736 185.951,171.457 185.951,179.736C185.951,181.855 185.511,183.873 184.716,185.701C182.492,191.203 177.098,195.088 170.804,195.088L161.951,195.088L161.951,233.648L216.598,233.648C222.114,233.648 226.939,236.632 229.545,241.073C230.981,243.373 231.811,246.091 231.811,249C231.811,257.279 225.09,264 216.811,264L146.514,264C138.229,264 131.514,257.284 131.514,249L131.514,228.809Z" style="fill:rgb(82,82,82);"/>
                </g>
                <g transform="matrix(1,0,0,1,12.9718,0)">
                    <path d="M856.727,185.232L856.727,167.781L930.896,167.781C935.655,167.781 939.52,171.645 939.52,176.405C939.52,177.624 939.267,178.783 938.81,179.835C937.531,182.998 934.43,185.232 930.811,185.232L856.727,185.232Z" style="fill:rgb(82,82,82);"/>
                </g>
                <g transform="matrix(1,0,0,1.17483,33.0583,-50.3365)">
                    <path d="M836.632,250.338L836.632,235.484L846.716,235.484L846.716,226.494C846.716,224.131 848.027,222.029 850.065,220.686C851.561,219.622 853.489,218.981 855.592,218.981L869.39,218.981C874.15,218.981 878.015,222.27 878.015,226.322C878.015,227.359 877.761,228.346 877.305,229.241C876.026,231.933 872.925,233.835 869.306,233.835L864.216,233.835L864.216,252.706L895.635,252.706C898.807,252.706 901.581,254.166 903.079,256.339C903.905,257.465 904.382,258.795 904.382,260.219C904.382,264.27 900.518,267.56 895.758,267.56L855.34,267.56C850.577,267.56 846.716,264.273 846.716,260.219L846.716,250.338L836.632,250.338Z" style="fill:rgb(82,82,82);"/>
                </g>
                <g transform="matrix(1,0,0,1,60,0)">
                    <g transform="matrix(1,0,0,1,-252.368,0)">
                        <path d="M1062.05,226.316L1089.64,226.316L1089.64,246.549L1121.06,246.549C1124.23,246.549 1127.01,248.265 1128.51,250.818C1129.33,252.141 1129.81,253.703 1129.81,255.376C1129.81,260.136 1125.94,264 1121.18,264L1080.77,264C1076,264 1072.14,260.139 1072.14,255.376L1072.14,243.767L1062.05,243.767L1062.05,226.316Z" style="fill:rgb(82,82,82);"/>
                    </g>
                    <g transform="matrix(1,0,0,1,-142.549,0)">
                        <path d="M952.226,243.767L952.226,226.316L962.323,226.316L962.323,215.755C962.323,212.979 963.635,210.509 965.672,208.932C967.169,207.681 969.096,206.928 971.199,206.928L984.998,206.928C989.758,206.928 993.622,210.792 993.622,215.552C993.622,216.771 993.369,217.931 992.912,218.982C991.633,222.145 988.532,224.379 984.913,224.379L979.823,224.379L979.823,246.549L962.323,246.549L962.323,243.767L952.226,243.767Z" style="fill:rgb(82,82,82);"/>
                    </g>
                </g>
            </g>
        </g>
    </g>
    <defs>
        <linearGradient id="_Linear1" x1="0" y1="0" x2="1" y2="0" gradientUnits="userSpaceOnUse" gradientTransform="matrix(64.5086,0,0,64.5086,857.491,176.506)"><stop offset="0" style="stop-color:rgb(26,26,26);stop-opacity:0"/><stop offset="1" style="stop-color:rgb(239,48,48);stop-opacity:1"/></linearGradient>
        <linearGradient id="_Linear2" x1="0" y1="0" x2="1" y2="0" gradientUnits="userSpaceOnUse" gradientTransform="matrix(67.7496,0,0,57.6677,836.632,243.27)"><stop offset="0" style="stop-color:rgb(26,26,26);stop-opacity:1"/><stop offset="0.47" style="stop-color:rgb(91,16,214);stop-opacity:1"/><stop offset="1" style="stop-color:rgb(61,32,224);stop-opacity:0"/></linearGradient>
        <linearGradient id="_Linear3" x1="0" y1="0" x2="1" y2="0" gradientUnits="userSpaceOnUse" gradientTransform="matrix(-24.7712,-24,24,-24.7712,1095.93,256)"><stop offset="0" style="stop-color:rgb(1,63,243);stop-opacity:1"/><stop offset="1" style="stop-color:rgb(61,32,224);stop-opacity:0"/></linearGradient>
        <linearGradient id="_Linear4" x1="0" y1="0" x2="1" y2="0" gradientUnits="userSpaceOnUse" gradientTransform="matrix(-20.2014,23.3232,-23.3232,-20.2014,985,215.89)"><stop offset="0" style="stop-color:rgb(121,0,204);stop-opacity:1"/><stop offset="0.4" style="stop-color:rgb(115,3,206);stop-opacity:0.9"/><stop offset="0.56" style="stop-color:rgb(103,10,210);stop-opacity:0.7"/><stop offset="0.7" style="stop-color:rgb(91,16,214);stop-opacity:0.5"/><stop offset="1" style="stop-color:rgb(61,32,224);stop-opacity:0"/></linearGradient>
    </defs>
</svg>
