<?xml version="1.0" encoding="UTF-8" standalone="no"?>
<!DOCTYPE svg PUBLIC "-//W3C//DTD SVG 1.1//EN" "http://www.w3.org/Graphics/SVG/1.1/DTD/svg11.dtd">
<svg width="100%" height="100%" viewBox="0 0 628 89" version="1.1" xmlns="http://www.w3.org/2000/svg" xmlns:xlink="http://www.w3.org/1999/xlink" xml:space="preserve" xmlns:serif="http://www.serif.com/" style="fill-rule:evenodd;clip-rule:evenodd;stroke-linejoin:round;stroke-miterlimit:2;">
    <g transform="matrix(1,0,0,1,-132.107,-482.493)">
        <g transform="matrix(1,0,0,1,-656.287,393.814)">
            <g transform="matrix(0.921889,0,0,0.921889,2.76178,-65.997)">
                <g transform="matrix(0.574951,0,0,0.574951,804.182,112.213)">
                    <path d="M131.514,228.809L98.514,228.809C90.229,228.809 83.514,222.094 83.514,213.809L83.514,112C83.514,107.172 85.795,102.876 89.338,100.133C91.941,97.957 95.293,96.648 98.951,96.648L242.951,96.648C251.23,96.648 257.951,103.369 257.951,111.648C257.951,113.767 257.511,115.785 256.716,117.613C254.492,123.115 249.098,127 242.804,127L113.951,127L113.951,198.457L131.514,198.457L131.514,180.088C131.514,175.26 133.795,170.964 137.338,168.221C139.941,166.045 143.293,164.736 146.951,164.736L170.951,164.736C179.23,164.736 185.951,171.457 185.951,179.736C185.951,181.855 185.511,183.873 184.716,185.701C182.492,191.203 177.098,195.088 170.804,195.088L161.951,195.088L161.951,233.648L216.598,233.648C222.114,233.648 226.939,236.632 229.545,241.073C230.981,243.373 231.811,246.091 231.811,249C231.811,257.279 225.09,264 216.811,264L146.514,264C138.229,264 131.514,257.284 131.514,249L131.514,228.809Z" style="fill:rgb(26,26,26);"/>
                </g>
                <g transform="matrix(1,0,0,1,12.9718,0)">
                    <path d="M856.727,185.232L856.727,167.781L930.896,167.781C935.655,167.781 939.52,171.645 939.52,176.405C939.52,177.624 939.267,178.783 938.81,179.835C937.531,182.998 934.43,185.232 930.811,185.232L856.727,185.232Z" style="fill:url(#_Linear1);"/>
                </g>
                <g transform="matrix(1,0,0,1.17483,33.0583,-50.3365)">
                    <path d="M836.632,250.338L836.632,235.484L846.716,235.484L846.716,226.494C846.716,224.131 848.027,222.029 850.065,220.686C851.561,219.622 853.489,218.981 855.592,218.981L869.39,218.981C874.15,218.981 878.015,222.27 878.015,226.322C878.015,227.359 877.761,228.346 877.305,229.241C876.026,231.933 872.925,233.835 869.306,233.835L864.216,233.835L864.216,252.706L895.635,252.706C898.807,252.706 901.581,254.166 903.079,256.339C903.905,257.465 904.382,258.795 904.382,260.219C904.382,264.27 900.518,267.56 895.758,267.56L855.34,267.56C850.577,267.56 846.716,264.273 846.716,260.219L846.716,250.338L836.632,250.338Z" style="fill:url(#_Linear2);"/>
                </g>
                <g transform="matrix(1,0,0,1,60,0)">
                    <g transform="matrix(1,0,0,1,-252.368,0)">
                        <path d="M1062.05,226.316L1089.64,226.316L1089.64,246.549L1121.06,246.549C1124.23,246.549 1127.01,248.265 1128.51,250.818C1129.33,252.141 1129.81,253.703 1129.81,255.376C1129.81,260.136 1125.94,264 1121.18,264L1080.77,264C1076,264 1072.14,260.139 1072.14,255.376L1072.14,243.767L1062.05,243.767L1062.05,226.316Z" style="fill:url(#_Linear3);"/>
                    </g>
                    <g transform="matrix(1,0,0,1,-142.549,0)">
                        <path d="M952.226,243.767L952.226,226.316L962.323,226.316L962.323,215.755C962.323,212.979 963.635,210.509 965.672,208.932C967.169,207.681 969.096,206.928 971.199,206.928L984.998,206.928C989.758,206.928 993.622,210.792 993.622,215.552C993.622,216.771 993.369,217.931 992.912,218.982C991.633,222.145 988.532,224.379 984.913,224.379L979.823,224.379L979.823,246.549L962.323,246.549L962.323,243.767L952.226,243.767Z" style="fill:url(#_Linear4);"/>
                    </g>
                </g>
            </g>
            <g>
                <g>
                    <g transform="matrix(0.651304,0,0,0.651304,266.547,-15.8345)">
                        <path d="M928.015,249.318L921.229,223.392L914.443,249.318L903.365,249.318L892.809,207.674L903.539,207.674L909.165,232.498L915.777,207.674L926.855,207.674L933.235,232.614L938.919,207.674L949.649,207.674L939.035,249.318L928.015,249.318Z" style="fill-rule:nonzero;"/>
                    </g>
                    <g transform="matrix(0.651304,0,0,0.651304,266.547,-15.8345)">
                        <path d="M982.361,239.806L982.361,249.318L952.897,249.318L952.897,207.674L981.955,207.674L981.955,217.186L963.859,217.186L963.859,223.16L980.273,223.16L980.273,232.672L963.859,232.672L963.859,239.806L982.361,239.806Z" style="fill-rule:nonzero;"/>
                    </g>
                    <g transform="matrix(0.651304,0,0,0.651304,266.547,-15.8345)">
                        <path d="M1020.82,235.688C1020.82,238.549 1020.09,241.043 1018.64,243.17C1017.19,245.296 1015.15,246.949 1012.52,248.129C1009.89,249.308 1006.76,249.898 1003.12,249.898C999.529,249.898 996.388,249.289 993.7,248.071C991.013,246.853 988.886,245.122 987.32,242.88C985.754,240.637 984.836,237.988 984.565,234.934L995.643,234.934C995.721,236.906 996.388,238.472 997.644,239.632C998.901,240.792 1000.65,241.372 1002.89,241.372C1004.17,241.372 1005.27,241.217 1006.2,240.908C1007.13,240.598 1007.85,240.134 1008.37,239.516C1008.9,238.897 1009.16,238.162 1009.16,237.312C1009.16,236.422 1008.76,235.659 1007.97,235.021C1007.18,234.383 1006.16,233.948 1004.92,233.716L997.325,232.266C995.663,231.956 994.155,231.473 992.801,230.816C991.448,230.158 990.278,229.337 989.292,228.351C988.306,227.365 987.552,226.205 987.03,224.871C986.508,223.537 986.247,222.038 986.247,220.376C986.247,217.785 986.943,215.494 988.335,213.503C989.727,211.511 991.641,209.955 994.077,208.834C996.513,207.712 999.297,207.152 1002.43,207.152C1005.75,207.152 1008.7,207.751 1011.27,208.95C1013.85,210.148 1015.91,211.84 1017.48,214.025C1019.05,216.209 1019.93,218.81 1020.12,221.826L1009.04,221.826C1008.96,220.55 1008.63,219.448 1008.06,218.52C1007.48,217.592 1006.72,216.876 1005.79,216.374C1004.87,215.871 1003.78,215.62 1002.55,215.62C1001.46,215.62 1000.53,215.794 999.761,216.142C998.988,216.49 998.389,216.963 997.963,217.563C997.538,218.162 997.325,218.848 997.325,219.622C997.325,220.24 997.509,220.772 997.876,221.217C998.244,221.661 998.737,222.029 999.355,222.319C999.974,222.609 1000.65,222.831 1001.38,222.986L1009.45,224.552C1013.16,225.286 1015.98,226.572 1017.92,228.409C1019.85,230.245 1020.82,232.672 1020.82,235.688Z" style="fill-rule:nonzero;"/>
                    </g>
                    <g transform="matrix(0.651304,0,0,0.651304,266.547,-15.8345)">
                        <path d="M1044.65,249.318L1033.69,249.318L1033.69,217.592L1020.93,217.592L1020.93,207.674L1057.41,207.674L1057.41,217.592L1044.65,217.592L1044.65,249.318Z" style="fill-rule:nonzero;"/>
                    </g>
                    <g transform="matrix(0.651304,0,0,0.651304,266.547,-15.8345)">
                        <path d="M1077.89,250.188C1074.87,250.188 1072.07,249.656 1069.48,248.593C1066.89,247.529 1064.62,246.021 1062.66,244.069C1060.71,242.116 1059.18,239.815 1058.08,237.167C1056.98,234.518 1056.43,231.608 1056.43,228.438C1056.43,225.267 1056.98,222.367 1058.08,219.738C1059.18,217.108 1060.71,214.827 1062.66,212.894C1064.62,210.96 1066.89,209.462 1069.48,208.399C1072.07,207.335 1074.87,206.804 1077.89,206.804C1080.9,206.804 1083.72,207.335 1086.33,208.399C1088.94,209.462 1091.22,210.96 1093.17,212.894C1095.12,214.827 1096.65,217.108 1097.75,219.738C1098.85,222.367 1099.4,225.267 1099.4,228.438C1099.4,231.608 1098.85,234.518 1097.75,237.167C1096.65,239.815 1095.12,242.116 1093.17,244.069C1091.22,246.021 1088.94,247.529 1086.33,248.593C1083.72,249.656 1080.9,250.188 1077.89,250.188ZM1077.89,240.386C1079.51,240.386 1080.96,240.076 1082.24,239.458C1083.51,238.839 1084.59,237.979 1085.46,236.877C1086.33,235.775 1086.98,234.499 1087.43,233.049C1087.87,231.599 1088.1,230.062 1088.1,228.438C1088.1,226.814 1087.87,225.286 1087.43,223.856C1086.98,222.425 1086.33,221.168 1085.46,220.086C1084.59,219.003 1083.51,218.152 1082.24,217.534C1080.96,216.915 1079.51,216.606 1077.89,216.606C1076.26,216.606 1074.81,216.915 1073.54,217.534C1072.26,218.152 1071.19,219.003 1070.32,220.086C1069.45,221.168 1068.79,222.425 1068.35,223.856C1067.9,225.286 1067.68,226.814 1067.68,228.438C1067.68,230.062 1067.9,231.599 1068.35,233.049C1068.79,234.499 1069.45,235.775 1070.32,236.877C1071.19,237.979 1072.26,238.839 1073.54,239.458C1074.81,240.076 1076.26,240.386 1077.89,240.386Z" style="fill-rule:nonzero;"/>
                    </g>
                    <g transform="matrix(0.651304,0,0,0.651304,266.547,-15.8345)">
                        <path d="M1130.55,249.318L1113.96,223.334L1113.96,249.318L1103.93,249.318L1103.93,207.674L1115.7,207.674L1131.07,231.744L1131.07,207.674L1141.11,207.674L1141.11,249.318L1130.55,249.318Z" style="fill-rule:nonzero;"/>
                    </g>
                </g>
                <g transform="matrix(1,0,0,1,-3,0)">
                    <g transform="matrix(0.651304,0,0,0.651304,266.547,-15.8345)">
                        <path d="M1199.92,237.381C1199.92,241.148 1198.63,244.079 1196.06,246.175C1193.48,248.27 1190.03,249.318 1185.71,249.318L1170.43,249.318L1170.43,207.674L1184.92,207.674C1189.13,207.674 1192.42,208.616 1194.79,210.5C1197.16,212.384 1198.35,215.074 1198.35,218.57C1198.35,220.545 1197.79,222.327 1196.68,223.916C1195.56,225.504 1194,226.732 1191.98,227.598C1194.58,228.349 1196.55,229.567 1197.9,231.252C1199.25,232.937 1199.92,234.98 1199.92,237.381ZM1184.49,212.796L1176.33,212.796L1176.33,225.282L1184.49,225.282C1187.02,225.282 1188.95,224.722 1190.27,223.601C1191.59,222.48 1192.26,220.955 1192.26,219.025C1192.26,217.095 1191.59,215.574 1190.27,214.463C1188.95,213.351 1187.02,212.796 1184.49,212.796ZM1185.28,230.404L1176.33,230.404L1176.33,244.195L1185.28,244.195C1188.02,244.195 1190.13,243.577 1191.61,242.34C1193.09,241.104 1193.83,239.384 1193.83,237.182C1193.83,235.058 1193.09,233.398 1191.61,232.2C1190.13,231.003 1188.02,230.404 1185.28,230.404Z" style="fill-rule:nonzero;"/>
                    </g>
                    <g transform="matrix(0.651304,0,0,0.651304,266.547,-15.8345)">
                        <path d="M1224.55,250.188C1221.53,250.188 1218.74,249.636 1216.17,248.533C1213.6,247.43 1211.35,245.893 1209.44,243.92C1207.53,241.948 1206.04,239.643 1204.98,237.004C1203.91,234.365 1203.38,231.51 1203.38,228.438C1203.38,225.365 1203.91,222.52 1204.98,219.9C1206.04,217.281 1207.53,214.99 1209.44,213.027C1211.35,211.064 1213.6,209.536 1216.17,208.443C1218.74,207.35 1221.53,206.804 1224.55,206.804C1227.56,206.804 1230.36,207.35 1232.93,208.443C1235.5,209.536 1237.74,211.064 1239.65,213.027C1241.57,214.99 1243.05,217.281 1244.12,219.9C1245.18,222.52 1245.71,225.365 1245.71,228.438C1245.71,231.51 1245.18,234.365 1244.12,237.004C1243.05,239.643 1241.57,241.948 1239.65,243.92C1237.74,245.893 1235.5,247.43 1232.93,248.533C1230.36,249.636 1227.56,250.188 1224.55,250.188ZM1224.55,244.467C1226.74,244.467 1228.73,244.054 1230.52,243.228C1232.31,242.403 1233.85,241.256 1235.13,239.79C1236.42,238.323 1237.4,236.618 1238.08,234.675C1238.76,232.732 1239.1,230.653 1239.1,228.438C1239.1,226.222 1238.76,224.147 1238.08,222.214C1237.4,220.28 1236.42,218.59 1235.13,217.142C1233.85,215.695 1232.31,214.564 1230.52,213.748C1228.73,212.932 1226.74,212.524 1224.55,212.524C1222.35,212.524 1220.36,212.932 1218.57,213.748C1216.78,214.564 1215.24,215.695 1213.96,217.142C1212.68,218.59 1211.69,220.28 1211,222.214C1210.31,224.147 1209.96,226.222 1209.96,228.438C1209.96,230.653 1210.31,232.732 1211,234.675C1211.69,236.618 1212.68,238.323 1213.96,239.79C1215.24,241.256 1216.78,242.403 1218.57,243.228C1220.36,244.054 1222.35,244.467 1224.55,244.467Z" style="fill-rule:nonzero;"/>
                    </g>
                    <g transform="matrix(0.651304,0,0,0.651304,266.547,-15.8345)">
                        <path d="M1266.24,249.318L1259.86,249.318L1259.86,213.421L1246.27,213.421L1246.27,207.674L1279.83,207.674L1279.83,213.421L1266.24,213.421L1266.24,249.318Z" style="fill-rule:nonzero;"/>
                    </g>
                    <g transform="matrix(0.651304,0,0,0.651304,266.547,-15.8345)">
                        <path d="M1286.88,233.849L1306.22,233.849L1307.97,238.971L1284.75,238.971L1286.88,233.849ZM1309.13,249.318L1296.43,214.621L1283.56,249.318L1277.15,249.318L1293.11,207.674L1300.12,207.674L1315.96,249.318L1309.13,249.318Z" style="fill-rule:nonzero;"/>
                    </g>
                    <g transform="matrix(0.651304,0,0,0.651304,266.547,-15.8345)">
                        <path d="M1348.32,249.318L1326.41,216.797L1326.41,249.318L1320.48,249.318L1320.48,207.674L1327.47,207.674L1348.84,239.315L1348.84,207.674L1354.76,207.674L1354.76,249.318L1348.32,249.318Z" style="fill-rule:nonzero;"/>
                    </g>
                    <g transform="matrix(0.651304,0,0,0.651304,266.547,-15.8345)">
                        <rect x="1362.61" y="207.674" width="6.406" height="41.644" style="fill-rule:nonzero;"/>
                    </g>
                    <g transform="matrix(0.651304,0,0,0.651304,266.547,-15.8345)">
                        <path d="M1395.07,250.188C1392.17,250.188 1389.47,249.637 1386.96,248.535C1384.46,247.433 1382.27,245.891 1380.4,243.909C1378.53,241.928 1377.07,239.618 1376.02,236.978C1374.98,234.339 1374.46,231.492 1374.46,228.438C1374.46,225.383 1374.98,222.546 1376.02,219.926C1377.07,217.306 1378.53,215.015 1380.4,213.053C1382.27,211.091 1384.46,209.559 1386.96,208.457C1389.47,207.355 1392.17,206.804 1395.07,206.804C1398.54,206.804 1401.71,207.522 1404.59,208.96C1407.47,210.398 1409.86,212.41 1411.76,214.997C1413.66,217.583 1414.87,220.595 1415.37,224.031L1408.62,224.031C1408.23,221.779 1407.4,219.789 1406.13,218.06C1404.86,216.332 1403.28,214.977 1401.39,213.996C1399.51,213.014 1397.42,212.524 1395.12,212.524C1393.05,212.524 1391.14,212.918 1389.42,213.705C1387.7,214.493 1386.22,215.596 1384.96,217.014C1383.71,218.433 1382.74,220.114 1382.06,222.057C1381.38,224 1381.04,226.127 1381.04,228.438C1381.04,230.768 1381.38,232.91 1382.06,234.862C1382.74,236.815 1383.71,238.505 1384.96,239.934C1386.22,241.362 1387.7,242.475 1389.42,243.272C1391.14,244.069 1393.05,244.467 1395.12,244.467C1397.44,244.467 1399.54,243.972 1401.43,242.981C1403.33,241.991 1404.9,240.622 1406.16,238.873C1407.41,237.125 1408.23,235.135 1408.62,232.902L1415.37,232.902C1414.87,236.338 1413.66,239.354 1411.76,241.95C1409.86,244.547 1407.47,246.569 1404.59,248.016C1401.71,249.464 1398.54,250.188 1395.07,250.188Z" style="fill-rule:nonzero;"/>
                    </g>
                    <g transform="matrix(0.651304,0,0,0.651304,266.547,-15.8345)">
                        <path d="M1425.18,233.849L1444.53,233.849L1446.27,238.971L1423.05,238.971L1425.18,233.849ZM1447.43,249.318L1434.73,214.621L1421.86,249.318L1415.45,249.318L1431.41,207.674L1438.42,207.674L1454.27,249.318L1447.43,249.318Z" style="fill-rule:nonzero;"/>
                    </g>
                    <g transform="matrix(0.651304,0,0,0.651304,266.547,-15.8345)">
                        <path d="M1484.04,249.318L1458.79,249.318L1458.79,207.674L1465.19,207.674L1465.19,243.57L1484.04,243.57L1484.04,249.318Z" style="fill-rule:nonzero;"/>
                    </g>
                </g>
                <g>
                    <g transform="matrix(0.651304,0,0,0.651304,266.547,-15.8345)">
                        <path d="M1530.57,237.137C1530.57,239.545 1529.94,241.714 1528.69,243.643C1527.44,245.572 1525.63,247.097 1523.27,248.217C1520.9,249.337 1518.03,249.898 1514.65,249.898C1511.31,249.898 1508.43,249.323 1506.01,248.174C1503.59,247.025 1501.7,245.413 1500.34,243.338C1498.98,241.263 1498.21,238.846 1498.02,236.087L1504.51,236.087C1504.68,238.729 1505.61,240.842 1507.28,242.426C1508.95,244.011 1511.37,244.803 1514.54,244.803C1516.31,244.803 1517.89,244.534 1519.28,243.998C1520.67,243.462 1521.77,242.683 1522.58,241.66C1523.39,240.637 1523.79,239.424 1523.79,238.021C1523.79,236.264 1523.21,234.904 1522.05,233.941C1520.9,232.977 1519.11,232.252 1516.69,231.763L1510.69,230.58C1509.22,230.29 1507.82,229.87 1506.47,229.322C1505.13,228.773 1503.93,228.059 1502.88,227.182C1501.82,226.304 1500.99,225.223 1500.38,223.939C1499.77,222.654 1499.46,221.131 1499.46,219.37C1499.46,217.036 1500.09,214.942 1501.36,213.089C1502.62,211.236 1504.36,209.778 1506.58,208.715C1508.8,207.653 1511.36,207.122 1514.25,207.122C1517.16,207.122 1519.77,207.677 1522.06,208.787C1524.36,209.897 1526.21,211.461 1527.63,213.478C1529.05,215.495 1529.84,217.893 1529.99,220.672L1523.47,220.672C1523.37,219.001 1522.92,217.53 1522.13,216.257C1521.33,214.984 1520.27,213.987 1518.95,213.268C1517.62,212.548 1516.08,212.188 1514.31,212.188C1512.52,212.188 1511,212.505 1509.77,213.14C1508.53,213.774 1507.58,214.602 1506.93,215.625C1506.28,216.649 1505.95,217.764 1505.95,218.971C1505.95,220.299 1506.3,221.363 1506.98,222.163C1507.66,222.963 1508.56,223.586 1509.67,224.034C1510.78,224.482 1511.98,224.842 1513.27,225.115L1519.44,226.356C1523.01,227.091 1525.76,228.292 1527.68,229.961C1529.61,231.63 1530.57,234.022 1530.57,237.137Z" style="fill-rule:nonzero;"/>
                    </g>
                    <g transform="matrix(0.651304,0,0,0.651304,266.547,-15.8345)">
                        <path d="M1563.14,243.769L1563.14,249.318L1536.75,249.318L1536.75,207.674L1562.73,207.674L1562.73,213.222L1543.16,213.222L1543.16,225.082L1561.02,225.082L1561.02,230.631L1543.16,230.631L1543.16,243.769L1563.14,243.769Z" style="fill-rule:nonzero;"/>
                    </g>
                    <g transform="matrix(0.651304,0,0,0.651304,266.547,-15.8345)">
                        <path d="M1575.89,249.318L1569.48,249.318L1569.48,207.674L1585.03,207.674C1589.83,207.674 1593.58,208.803 1596.3,211.062C1599.02,213.321 1600.38,216.526 1600.38,220.676C1600.38,223.66 1599.48,226.23 1597.69,228.387C1595.9,230.544 1593.43,231.995 1590.29,232.739L1601.57,249.318L1593.93,249.318L1583.57,233.651L1575.89,233.651L1575.89,249.318ZM1575.89,212.995L1575.89,228.33L1584.62,228.33C1587.57,228.33 1589.86,227.682 1591.5,226.386C1593.13,225.091 1593.94,223.187 1593.94,220.676C1593.94,218.166 1593.13,216.258 1591.5,214.953C1589.86,213.648 1587.57,212.995 1584.62,212.995L1575.89,212.995Z" style="fill-rule:nonzero;"/>
                    </g>
                    <g transform="matrix(0.651304,0,0,0.651304,266.547,-15.8345)">
                        <path d="M1639.71,207.674L1624.36,249.318L1617.36,249.318L1602.06,207.674L1608.89,207.674L1621.02,241.913L1633.31,207.674L1639.71,207.674Z" style="fill-rule:nonzero;"/>
                    </g>
                    <g transform="matrix(0.651304,0,0,0.651304,266.547,-15.8345)">
                        <rect x="1643.94" y="207.674" width="6.406" height="41.644" style="fill-rule:nonzero;"/>
                    </g>
                    <g transform="matrix(0.651304,0,0,0.651304,266.547,-15.8345)">
                        <path d="M1676.4,250.188C1673.5,250.188 1670.8,249.637 1668.3,248.535C1665.8,247.433 1663.61,245.891 1661.73,243.909C1659.86,241.928 1658.4,239.618 1657.36,236.978C1656.31,234.339 1655.79,231.492 1655.79,228.438C1655.79,225.383 1656.31,222.546 1657.36,219.926C1658.4,217.306 1659.86,215.015 1661.73,213.053C1663.61,211.091 1665.8,209.559 1668.3,208.457C1670.8,207.355 1673.5,206.804 1676.4,206.804C1679.87,206.804 1683.05,207.522 1685.92,208.96C1688.8,210.398 1691.19,212.41 1693.09,214.997C1695,217.583 1696.2,220.595 1696.7,224.031L1689.95,224.031C1689.57,221.779 1688.74,219.789 1687.46,218.06C1686.19,216.332 1684.61,214.977 1682.73,213.996C1680.84,213.014 1678.75,212.524 1676.46,212.524C1674.38,212.524 1672.48,212.918 1670.76,213.705C1669.04,214.493 1667.55,215.596 1666.3,217.014C1665.04,218.433 1664.07,220.114 1663.39,222.057C1662.71,224 1662.37,226.127 1662.37,228.438C1662.37,230.768 1662.71,232.91 1663.39,234.862C1664.07,236.815 1665.04,238.505 1666.3,239.934C1667.55,241.362 1669.04,242.475 1670.76,243.272C1672.48,244.069 1674.38,244.467 1676.46,244.467C1678.77,244.467 1680.87,243.972 1682.77,242.981C1684.66,241.991 1686.24,240.622 1687.49,238.873C1688.75,237.125 1689.57,235.135 1689.95,232.902L1696.7,232.902C1696.2,236.338 1695,239.354 1693.1,241.95C1691.19,244.547 1688.8,246.569 1685.92,248.016C1683.05,249.464 1679.87,250.188 1676.4,250.188Z" style="fill-rule:nonzero;"/>
                    </g>
                    <g transform="matrix(0.651304,0,0,0.651304,266.547,-15.8345)">
                        <path d="M1728.53,243.769L1728.53,249.318L1702.15,249.318L1702.15,207.674L1728.13,207.674L1728.13,213.222L1708.55,213.222L1708.55,225.082L1726.42,225.082L1726.42,230.631L1708.55,230.631L1708.55,243.769L1728.53,243.769Z" style="fill-rule:nonzero;"/>
                    </g>
                    <g transform="matrix(0.651304,0,0,0.651304,266.547,-15.8345)">
                        <path d="M1765.36,237.137C1765.36,239.545 1764.74,241.714 1763.48,243.643C1762.23,245.572 1760.42,247.097 1758.06,248.217C1755.69,249.337 1752.82,249.898 1749.44,249.898C1746.11,249.898 1743.23,249.323 1740.8,248.174C1738.38,247.025 1736.49,245.413 1735.13,243.338C1733.78,241.263 1733,238.846 1732.81,236.087L1739.3,236.087C1739.48,238.729 1740.4,240.842 1742.07,242.426C1743.74,244.011 1746.16,244.803 1749.33,244.803C1751.1,244.803 1752.68,244.534 1754.07,243.998C1755.46,243.462 1756.56,242.683 1757.37,241.66C1758.18,240.637 1758.58,239.424 1758.58,238.021C1758.58,236.264 1758,234.904 1756.85,233.941C1755.69,232.977 1753.9,232.252 1751.48,231.763L1745.48,230.58C1744.01,230.29 1742.61,229.87 1741.27,229.322C1739.92,228.773 1738.72,228.059 1737.67,227.182C1736.61,226.304 1735.78,225.223 1735.17,223.939C1734.56,222.654 1734.25,221.131 1734.25,219.37C1734.25,217.036 1734.88,214.942 1736.15,213.089C1737.41,211.236 1739.15,209.778 1741.37,208.715C1743.59,207.653 1746.15,207.122 1749.05,207.122C1751.96,207.122 1754.56,207.677 1756.86,208.787C1759.15,209.897 1761.01,211.461 1762.42,213.478C1763.84,215.495 1764.63,217.893 1764.78,220.672L1758.26,220.672C1758.16,219.001 1757.72,217.53 1756.92,216.257C1756.12,214.984 1755.06,213.987 1753.74,213.268C1752.42,212.548 1750.87,212.188 1749.1,212.188C1747.31,212.188 1745.8,212.505 1744.56,213.14C1743.32,213.774 1742.38,214.602 1741.73,215.625C1741.07,216.649 1740.75,217.764 1740.75,218.971C1740.75,220.299 1741.09,221.363 1741.77,222.163C1742.45,222.963 1743.35,223.586 1744.46,224.034C1745.57,224.482 1746.77,224.842 1748.06,225.115L1754.23,226.356C1757.8,227.091 1760.55,228.292 1762.48,229.961C1764.4,231.63 1765.36,234.022 1765.36,237.137Z" style="fill-rule:nonzero;"/>
                    </g>
                </g>
            </g>
        </g>
        <g transform="matrix(1,0,0,1,-656.287,393.814)">
            <g transform="matrix(0.921889,0,0,0.921889,2.76178,-65.997)">
                <g transform="matrix(0.574951,0,0,0.574951,804.182,112.213)">
                    <path d="M131.514,228.809L98.514,228.809C90.229,228.809 83.514,222.094 83.514,213.809L83.514,112C83.514,107.172 85.795,102.876 89.338,100.133C91.941,97.957 95.293,96.648 98.951,96.648L242.951,96.648C251.23,96.648 257.951,103.369 257.951,111.648C257.951,113.767 257.511,115.785 256.716,117.613C254.492,123.115 249.098,127 242.804,127L113.951,127L113.951,198.457L131.514,198.457L131.514,180.088C131.514,175.26 133.795,170.964 137.338,168.221C139.941,166.045 143.293,164.736 146.951,164.736L170.951,164.736C179.23,164.736 185.951,171.457 185.951,179.736C185.951,181.855 185.511,183.873 184.716,185.701C182.492,191.203 177.098,195.088 170.804,195.088L161.951,195.088L161.951,233.648L216.598,233.648C222.114,233.648 226.939,236.632 229.545,241.073C230.981,243.373 231.811,246.091 231.811,249C231.811,257.279 225.09,264 216.811,264L146.514,264C138.229,264 131.514,257.284 131.514,249L131.514,228.809Z" style="fill:white;"/>
                </g>
                <g transform="matrix(1,0,0,1,12.9718,0)">
                    <path d="M856.727,185.232L856.727,167.781L930.896,167.781C935.655,167.781 939.52,171.645 939.52,176.405C939.52,177.624 939.267,178.783 938.81,179.835C937.531,182.998 934.43,185.232 930.811,185.232L856.727,185.232Z" style="fill:white;"/>
                </g>
                <g transform="matrix(1,0,0,1.17483,33.0583,-50.3365)">
                    <path d="M836.632,250.338L836.632,235.484L846.716,235.484L846.716,226.494C846.716,224.131 848.027,222.029 850.065,220.686C851.561,219.622 853.489,218.981 855.592,218.981L869.39,218.981C874.15,218.981 878.015,222.27 878.015,226.322C878.015,227.359 877.761,228.346 877.305,229.241C876.026,231.933 872.925,233.835 869.306,233.835L864.216,233.835L864.216,252.706L895.635,252.706C898.807,252.706 901.581,254.166 903.079,256.339C903.905,257.465 904.382,258.795 904.382,260.219C904.382,264.27 900.518,267.56 895.758,267.56L855.34,267.56C850.577,267.56 846.716,264.273 846.716,260.219L846.716,250.338L836.632,250.338Z" style="fill:white;"/>
                </g>
                <g transform="matrix(1,0,0,1,60,0)">
                    <g transform="matrix(1,0,0,1,-252.368,0)">
                        <path d="M1062.05,226.316L1089.64,226.316L1089.64,246.549L1121.06,246.549C1124.23,246.549 1127.01,248.265 1128.51,250.818C1129.33,252.141 1129.81,253.703 1129.81,255.376C1129.81,260.136 1125.94,264 1121.18,264L1080.77,264C1076,264 1072.14,260.139 1072.14,255.376L1072.14,243.767L1062.05,243.767L1062.05,226.316Z" style="fill:white;"/>
                    </g>
                    <g transform="matrix(1,0,0,1,-142.549,0)">
                        <path d="M952.226,243.767L952.226,226.316L962.323,226.316L962.323,215.755C962.323,212.979 963.635,210.509 965.672,208.932C967.169,207.681 969.096,206.928 971.199,206.928L984.998,206.928C989.758,206.928 993.622,210.792 993.622,215.552C993.622,216.771 993.369,217.931 992.912,218.982C991.633,222.145 988.532,224.379 984.913,224.379L979.823,224.379L979.823,246.549L962.323,246.549L962.323,243.767L952.226,243.767Z" style="fill:white;"/>
                    </g>
                </g>
            </g>
            <g>
                <g>
                    <g transform="matrix(0.651304,0,0,0.651304,266.547,-15.8345)">
                        <path d="M928.015,249.318L921.229,223.392L914.443,249.318L903.365,249.318L892.809,207.674L903.539,207.674L909.165,232.498L915.777,207.674L926.855,207.674L933.235,232.614L938.919,207.674L949.649,207.674L939.035,249.318L928.015,249.318Z" style="fill:white;fill-rule:nonzero;"/>
                    </g>
                    <g transform="matrix(0.651304,0,0,0.651304,266.547,-15.8345)">
                        <path d="M982.361,239.806L982.361,249.318L952.897,249.318L952.897,207.674L981.955,207.674L981.955,217.186L963.859,217.186L963.859,223.16L980.273,223.16L980.273,232.672L963.859,232.672L963.859,239.806L982.361,239.806Z" style="fill:white;fill-rule:nonzero;"/>
                    </g>
                    <g transform="matrix(0.651304,0,0,0.651304,266.547,-15.8345)">
                        <path d="M1020.82,235.688C1020.82,238.549 1020.09,241.043 1018.64,243.17C1017.19,245.296 1015.15,246.949 1012.52,248.129C1009.89,249.308 1006.76,249.898 1003.12,249.898C999.529,249.898 996.388,249.289 993.7,248.071C991.013,246.853 988.886,245.122 987.32,242.88C985.754,240.637 984.836,237.988 984.565,234.934L995.643,234.934C995.721,236.906 996.388,238.472 997.644,239.632C998.901,240.792 1000.65,241.372 1002.89,241.372C1004.17,241.372 1005.27,241.217 1006.2,240.908C1007.13,240.598 1007.85,240.134 1008.37,239.516C1008.9,238.897 1009.16,238.162 1009.16,237.312C1009.16,236.422 1008.76,235.659 1007.97,235.021C1007.18,234.383 1006.16,233.948 1004.92,233.716L997.325,232.266C995.663,231.956 994.155,231.473 992.801,230.816C991.448,230.158 990.278,229.337 989.292,228.351C988.306,227.365 987.552,226.205 987.03,224.871C986.508,223.537 986.247,222.038 986.247,220.376C986.247,217.785 986.943,215.494 988.335,213.503C989.727,211.511 991.641,209.955 994.077,208.834C996.513,207.712 999.297,207.152 1002.43,207.152C1005.75,207.152 1008.7,207.751 1011.27,208.95C1013.85,210.148 1015.91,211.84 1017.48,214.025C1019.05,216.209 1019.93,218.81 1020.12,221.826L1009.04,221.826C1008.96,220.55 1008.63,219.448 1008.06,218.52C1007.48,217.592 1006.72,216.876 1005.79,216.374C1004.87,215.871 1003.78,215.62 1002.55,215.62C1001.46,215.62 1000.53,215.794 999.761,216.142C998.988,216.49 998.389,216.963 997.963,217.563C997.538,218.162 997.325,218.848 997.325,219.622C997.325,220.24 997.509,220.772 997.876,221.217C998.244,221.661 998.737,222.029 999.355,222.319C999.974,222.609 1000.65,222.831 1001.38,222.986L1009.45,224.552C1013.16,225.286 1015.98,226.572 1017.92,228.409C1019.85,230.245 1020.82,232.672 1020.82,235.688Z" style="fill:white;fill-rule:nonzero;"/>
                    </g>
                    <g transform="matrix(0.651304,0,0,0.651304,266.547,-15.8345)">
                        <path d="M1044.65,249.318L1033.69,249.318L1033.69,217.592L1020.93,217.592L1020.93,207.674L1057.41,207.674L1057.41,217.592L1044.65,217.592L1044.65,249.318Z" style="fill:white;fill-rule:nonzero;"/>
                    </g>
                    <g transform="matrix(0.651304,0,0,0.651304,266.547,-15.8345)">
                        <path d="M1077.89,250.188C1074.87,250.188 1072.07,249.656 1069.48,248.593C1066.89,247.529 1064.62,246.021 1062.66,244.069C1060.71,242.116 1059.18,239.815 1058.08,237.167C1056.98,234.518 1056.43,231.608 1056.43,228.438C1056.43,225.267 1056.98,222.367 1058.08,219.738C1059.18,217.108 1060.71,214.827 1062.66,212.894C1064.62,210.96 1066.89,209.462 1069.48,208.399C1072.07,207.335 1074.87,206.804 1077.89,206.804C1080.9,206.804 1083.72,207.335 1086.33,208.399C1088.94,209.462 1091.22,210.96 1093.17,212.894C1095.12,214.827 1096.65,217.108 1097.75,219.738C1098.85,222.367 1099.4,225.267 1099.4,228.438C1099.4,231.608 1098.85,234.518 1097.75,237.167C1096.65,239.815 1095.12,242.116 1093.17,244.069C1091.22,246.021 1088.94,247.529 1086.33,248.593C1083.72,249.656 1080.9,250.188 1077.89,250.188ZM1077.89,240.386C1079.51,240.386 1080.96,240.076 1082.24,239.458C1083.51,238.839 1084.59,237.979 1085.46,236.877C1086.33,235.775 1086.98,234.499 1087.43,233.049C1087.87,231.599 1088.1,230.062 1088.1,228.438C1088.1,226.814 1087.87,225.286 1087.43,223.856C1086.98,222.425 1086.33,221.168 1085.46,220.086C1084.59,219.003 1083.51,218.152 1082.24,217.534C1080.96,216.915 1079.51,216.606 1077.89,216.606C1076.26,216.606 1074.81,216.915 1073.54,217.534C1072.26,218.152 1071.19,219.003 1070.32,220.086C1069.45,221.168 1068.79,222.425 1068.35,223.856C1067.9,225.286 1067.68,226.814 1067.68,228.438C1067.68,230.062 1067.9,231.599 1068.35,233.049C1068.79,234.499 1069.45,235.775 1070.32,236.877C1071.19,237.979 1072.26,238.839 1073.54,239.458C1074.81,240.076 1076.26,240.386 1077.89,240.386Z" style="fill:white;fill-rule:nonzero;"/>
                    </g>
                    <g transform="matrix(0.651304,0,0,0.651304,266.547,-15.8345)">
                        <path d="M1130.55,249.318L1113.96,223.334L1113.96,249.318L1103.93,249.318L1103.93,207.674L1115.7,207.674L1131.07,231.744L1131.07,207.674L1141.11,207.674L1141.11,249.318L1130.55,249.318Z" style="fill:white;fill-rule:nonzero;"/>
                    </g>
                </g>
                <g transform="matrix(1,0,0,1,-3,0)">
                    <g transform="matrix(0.651304,0,0,0.651304,266.547,-15.8345)">
                        <path d="M1199.92,237.381C1199.92,241.148 1198.63,244.079 1196.06,246.175C1193.48,248.27 1190.03,249.318 1185.71,249.318L1170.43,249.318L1170.43,207.674L1184.92,207.674C1189.13,207.674 1192.42,208.616 1194.79,210.5C1197.16,212.384 1198.35,215.074 1198.35,218.57C1198.35,220.545 1197.79,222.327 1196.68,223.916C1195.56,225.504 1194,226.732 1191.98,227.598C1194.58,228.349 1196.55,229.567 1197.9,231.252C1199.25,232.937 1199.92,234.98 1199.92,237.381ZM1184.49,212.796L1176.33,212.796L1176.33,225.282L1184.49,225.282C1187.02,225.282 1188.95,224.722 1190.27,223.601C1191.59,222.48 1192.26,220.955 1192.26,219.025C1192.26,217.095 1191.59,215.574 1190.27,214.463C1188.95,213.351 1187.02,212.796 1184.49,212.796ZM1185.28,230.404L1176.33,230.404L1176.33,244.195L1185.28,244.195C1188.02,244.195 1190.13,243.577 1191.61,242.34C1193.09,241.104 1193.83,239.384 1193.83,237.182C1193.83,235.058 1193.09,233.398 1191.61,232.2C1190.13,231.003 1188.02,230.404 1185.28,230.404Z" style="fill:white;fill-rule:nonzero;"/>
                    </g>
                    <g transform="matrix(0.651304,0,0,0.651304,266.547,-15.8345)">
                        <path d="M1224.55,250.188C1221.53,250.188 1218.74,249.636 1216.17,248.533C1213.6,247.43 1211.35,245.893 1209.44,243.92C1207.53,241.948 1206.04,239.643 1204.98,237.004C1203.91,234.365 1203.38,231.51 1203.38,228.438C1203.38,225.365 1203.91,222.52 1204.98,219.9C1206.04,217.281 1207.53,214.99 1209.44,213.027C1211.35,211.064 1213.6,209.536 1216.17,208.443C1218.74,207.35 1221.53,206.804 1224.55,206.804C1227.56,206.804 1230.36,207.35 1232.93,208.443C1235.5,209.536 1237.74,211.064 1239.65,213.027C1241.57,214.99 1243.05,217.281 1244.12,219.9C1245.18,222.52 1245.71,225.365 1245.71,228.438C1245.71,231.51 1245.18,234.365 1244.12,237.004C1243.05,239.643 1241.57,241.948 1239.65,243.92C1237.74,245.893 1235.5,247.43 1232.93,248.533C1230.36,249.636 1227.56,250.188 1224.55,250.188ZM1224.55,244.467C1226.74,244.467 1228.73,244.054 1230.52,243.228C1232.31,242.403 1233.85,241.256 1235.13,239.79C1236.42,238.323 1237.4,236.618 1238.08,234.675C1238.76,232.732 1239.1,230.653 1239.1,228.438C1239.1,226.222 1238.76,224.147 1238.08,222.214C1237.4,220.28 1236.42,218.59 1235.13,217.142C1233.85,215.695 1232.31,214.564 1230.52,213.748C1228.73,212.932 1226.74,212.524 1224.55,212.524C1222.35,212.524 1220.36,212.932 1218.57,213.748C1216.78,214.564 1215.24,215.695 1213.96,217.142C1212.68,218.59 1211.69,220.28 1211,222.214C1210.31,224.147 1209.96,226.222 1209.96,228.438C1209.96,230.653 1210.31,232.732 1211,234.675C1211.69,236.618 1212.68,238.323 1213.96,239.79C1215.24,241.256 1216.78,242.403 1218.57,243.228C1220.36,244.054 1222.35,244.467 1224.55,244.467Z" style="fill:white;fill-rule:nonzero;"/>
                    </g>
                    <g transform="matrix(0.651304,0,0,0.651304,266.547,-15.8345)">
                        <path d="M1266.24,249.318L1259.86,249.318L1259.86,213.421L1246.27,213.421L1246.27,207.674L1279.83,207.674L1279.83,213.421L1266.24,213.421L1266.24,249.318Z" style="fill:white;fill-rule:nonzero;"/>
                    </g>
                    <g transform="matrix(0.651304,0,0,0.651304,266.547,-15.8345)">
                        <path d="M1286.88,233.849L1306.22,233.849L1307.97,238.971L1284.75,238.971L1286.88,233.849ZM1309.13,249.318L1296.43,214.621L1283.56,249.318L1277.15,249.318L1293.11,207.674L1300.12,207.674L1315.96,249.318L1309.13,249.318Z" style="fill:white;fill-rule:nonzero;"/>
                    </g>
                    <g transform="matrix(0.651304,0,0,0.651304,266.547,-15.8345)">
                        <path d="M1348.32,249.318L1326.41,216.797L1326.41,249.318L1320.48,249.318L1320.48,207.674L1327.47,207.674L1348.84,239.315L1348.84,207.674L1354.76,207.674L1354.76,249.318L1348.32,249.318Z" style="fill:white;fill-rule:nonzero;"/>
                    </g>
                    <g transform="matrix(0.651304,0,0,0.651304,266.547,-15.8345)">
                        <rect x="1362.61" y="207.674" width="6.406" height="41.644" style="fill:white;fill-rule:nonzero;"/>
                    </g>
                    <g transform="matrix(0.651304,0,0,0.651304,266.547,-15.8345)">
                        <path d="M1395.07,250.188C1392.17,250.188 1389.47,249.637 1386.96,248.535C1384.46,247.433 1382.27,245.891 1380.4,243.909C1378.53,241.928 1377.07,239.618 1376.02,236.978C1374.98,234.339 1374.46,231.492 1374.46,228.438C1374.46,225.383 1374.98,222.546 1376.02,219.926C1377.07,217.306 1378.53,215.015 1380.4,213.053C1382.27,211.091 1384.46,209.559 1386.96,208.457C1389.47,207.355 1392.17,206.804 1395.07,206.804C1398.54,206.804 1401.71,207.522 1404.59,208.96C1407.47,210.398 1409.86,212.41 1411.76,214.997C1413.66,217.583 1414.87,220.595 1415.37,224.031L1408.62,224.031C1408.23,221.779 1407.4,219.789 1406.13,218.06C1404.86,216.332 1403.28,214.977 1401.39,213.996C1399.51,213.014 1397.42,212.524 1395.12,212.524C1393.05,212.524 1391.14,212.918 1389.42,213.705C1387.7,214.493 1386.22,215.596 1384.96,217.014C1383.71,218.433 1382.74,220.114 1382.06,222.057C1381.38,224 1381.04,226.127 1381.04,228.438C1381.04,230.768 1381.38,232.91 1382.06,234.862C1382.74,236.815 1383.71,238.505 1384.96,239.934C1386.22,241.362 1387.7,242.475 1389.42,243.272C1391.14,244.069 1393.05,244.467 1395.12,244.467C1397.44,244.467 1399.54,243.972 1401.43,242.981C1403.33,241.991 1404.9,240.622 1406.16,238.873C1407.41,237.125 1408.23,235.135 1408.62,232.902L1415.37,232.902C1414.87,236.338 1413.66,239.354 1411.76,241.95C1409.86,244.547 1407.47,246.569 1404.59,248.016C1401.71,249.464 1398.54,250.188 1395.07,250.188Z" style="fill:white;fill-rule:nonzero;"/>
                    </g>
                    <g transform="matrix(0.651304,0,0,0.651304,266.547,-15.8345)">
                        <path d="M1425.18,233.849L1444.53,233.849L1446.27,238.971L1423.05,238.971L1425.18,233.849ZM1447.43,249.318L1434.73,214.621L1421.86,249.318L1415.45,249.318L1431.41,207.674L1438.42,207.674L1454.27,249.318L1447.43,249.318Z" style="fill:white;fill-rule:nonzero;"/>
                    </g>
                    <g transform="matrix(0.651304,0,0,0.651304,266.547,-15.8345)">
                        <path d="M1484.04,249.318L1458.79,249.318L1458.79,207.674L1465.19,207.674L1465.19,243.57L1484.04,243.57L1484.04,249.318Z" style="fill:white;fill-rule:nonzero;"/>
                    </g>
                </g>
                <g>
                    <g transform="matrix(0.651304,0,0,0.651304,266.547,-15.8345)">
                        <path d="M1530.57,237.137C1530.57,239.545 1529.94,241.714 1528.69,243.643C1527.44,245.572 1525.63,247.097 1523.27,248.217C1520.9,249.337 1518.03,249.898 1514.65,249.898C1511.31,249.898 1508.43,249.323 1506.01,248.174C1503.59,247.025 1501.7,245.413 1500.34,243.338C1498.98,241.263 1498.21,238.846 1498.02,236.087L1504.51,236.087C1504.68,238.729 1505.61,240.842 1507.28,242.426C1508.95,244.011 1511.37,244.803 1514.54,244.803C1516.31,244.803 1517.89,244.534 1519.28,243.998C1520.67,243.462 1521.77,242.683 1522.58,241.66C1523.39,240.637 1523.79,239.424 1523.79,238.021C1523.79,236.264 1523.21,234.904 1522.05,233.941C1520.9,232.977 1519.11,232.252 1516.69,231.763L1510.69,230.58C1509.22,230.29 1507.82,229.87 1506.47,229.322C1505.13,228.773 1503.93,228.059 1502.88,227.182C1501.82,226.304 1500.99,225.223 1500.38,223.939C1499.77,222.654 1499.46,221.131 1499.46,219.37C1499.46,217.036 1500.09,214.942 1501.36,213.089C1502.62,211.236 1504.36,209.778 1506.58,208.715C1508.8,207.653 1511.36,207.122 1514.25,207.122C1517.16,207.122 1519.77,207.677 1522.06,208.787C1524.36,209.897 1526.21,211.461 1527.63,213.478C1529.05,215.495 1529.84,217.893 1529.99,220.672L1523.47,220.672C1523.37,219.001 1522.92,217.53 1522.13,216.257C1521.33,214.984 1520.27,213.987 1518.95,213.268C1517.62,212.548 1516.08,212.188 1514.31,212.188C1512.52,212.188 1511,212.505 1509.77,213.14C1508.53,213.774 1507.58,214.602 1506.93,215.625C1506.28,216.649 1505.95,217.764 1505.95,218.971C1505.95,220.299 1506.3,221.363 1506.98,222.163C1507.66,222.963 1508.56,223.586 1509.67,224.034C1510.78,224.482 1511.98,224.842 1513.27,225.115L1519.44,226.356C1523.01,227.091 1525.76,228.292 1527.68,229.961C1529.61,231.63 1530.57,234.022 1530.57,237.137Z" style="fill:white;fill-rule:nonzero;"/>
                    </g>
                    <g transform="matrix(0.651304,0,0,0.651304,266.547,-15.8345)">
                        <path d="M1563.14,243.769L1563.14,249.318L1536.75,249.318L1536.75,207.674L1562.73,207.674L1562.73,213.222L1543.16,213.222L1543.16,225.082L1561.02,225.082L1561.02,230.631L1543.16,230.631L1543.16,243.769L1563.14,243.769Z" style="fill:white;fill-rule:nonzero;"/>
                    </g>
                    <g transform="matrix(0.651304,0,0,0.651304,266.547,-15.8345)">
                        <path d="M1575.89,249.318L1569.48,249.318L1569.48,207.674L1585.03,207.674C1589.83,207.674 1593.58,208.803 1596.3,211.062C1599.02,213.321 1600.38,216.526 1600.38,220.676C1600.38,223.66 1599.48,226.23 1597.69,228.387C1595.9,230.544 1593.43,231.995 1590.29,232.739L1601.57,249.318L1593.93,249.318L1583.57,233.651L1575.89,233.651L1575.89,249.318ZM1575.89,212.995L1575.89,228.33L1584.62,228.33C1587.57,228.33 1589.86,227.682 1591.5,226.386C1593.13,225.091 1593.94,223.187 1593.94,220.676C1593.94,218.166 1593.13,216.258 1591.5,214.953C1589.86,213.648 1587.57,212.995 1584.62,212.995L1575.89,212.995Z" style="fill:white;fill-rule:nonzero;"/>
                    </g>
                    <g transform="matrix(0.651304,0,0,0.651304,266.547,-15.8345)">
                        <path d="M1639.71,207.674L1624.36,249.318L1617.36,249.318L1602.06,207.674L1608.89,207.674L1621.02,241.913L1633.31,207.674L1639.71,207.674Z" style="fill:white;fill-rule:nonzero;"/>
                    </g>
                    <g transform="matrix(0.651304,0,0,0.651304,266.547,-15.8345)">
                        <rect x="1643.94" y="207.674" width="6.406" height="41.644" style="fill:white;fill-rule:nonzero;"/>
                    </g>
                    <g transform="matrix(0.651304,0,0,0.651304,266.547,-15.8345)">
                        <path d="M1676.4,250.188C1673.5,250.188 1670.8,249.637 1668.3,248.535C1665.8,247.433 1663.61,245.891 1661.73,243.909C1659.86,241.928 1658.4,239.618 1657.36,236.978C1656.31,234.339 1655.79,231.492 1655.79,228.438C1655.79,225.383 1656.31,222.546 1657.36,219.926C1658.4,217.306 1659.86,215.015 1661.73,213.053C1663.61,211.091 1665.8,209.559 1668.3,208.457C1670.8,207.355 1673.5,206.804 1676.4,206.804C1679.87,206.804 1683.05,207.522 1685.92,208.96C1688.8,210.398 1691.19,212.41 1693.09,214.997C1695,217.583 1696.2,220.595 1696.7,224.031L1689.95,224.031C1689.57,221.779 1688.74,219.789 1687.46,218.06C1686.19,216.332 1684.61,214.977 1682.73,213.996C1680.84,213.014 1678.75,212.524 1676.46,212.524C1674.38,212.524 1672.48,212.918 1670.76,213.705C1669.04,214.493 1667.55,215.596 1666.3,217.014C1665.04,218.433 1664.07,220.114 1663.39,222.057C1662.71,224 1662.37,226.127 1662.37,228.438C1662.37,230.768 1662.71,232.91 1663.39,234.862C1664.07,236.815 1665.04,238.505 1666.3,239.934C1667.55,241.362 1669.04,242.475 1670.76,243.272C1672.48,244.069 1674.38,244.467 1676.46,244.467C1678.77,244.467 1680.87,243.972 1682.77,242.981C1684.66,241.991 1686.24,240.622 1687.49,238.873C1688.75,237.125 1689.57,235.135 1689.95,232.902L1696.7,232.902C1696.2,236.338 1695,239.354 1693.1,241.95C1691.19,244.547 1688.8,246.569 1685.92,248.016C1683.05,249.464 1679.87,250.188 1676.4,250.188Z" style="fill:white;fill-rule:nonzero;"/>
                    </g>
                    <g transform="matrix(0.651304,0,0,0.651304,266.547,-15.8345)">
                        <path d="M1728.53,243.769L1728.53,249.318L1702.15,249.318L1702.15,207.674L1728.13,207.674L1728.13,213.222L1708.55,213.222L1708.55,225.082L1726.42,225.082L1726.42,230.631L1708.55,230.631L1708.55,243.769L1728.53,243.769Z" style="fill:white;fill-rule:nonzero;"/>
                    </g>
                    <g transform="matrix(0.651304,0,0,0.651304,266.547,-15.8345)">
                        <path d="M1765.36,237.137C1765.36,239.545 1764.74,241.714 1763.48,243.643C1762.23,245.572 1760.42,247.097 1758.06,248.217C1755.69,249.337 1752.82,249.898 1749.44,249.898C1746.11,249.898 1743.23,249.323 1740.8,248.174C1738.38,247.025 1736.49,245.413 1735.13,243.338C1733.78,241.263 1733,238.846 1732.81,236.087L1739.3,236.087C1739.48,238.729 1740.4,240.842 1742.07,242.426C1743.74,244.011 1746.16,244.803 1749.33,244.803C1751.1,244.803 1752.68,244.534 1754.07,243.998C1755.46,243.462 1756.56,242.683 1757.37,241.66C1758.18,240.637 1758.58,239.424 1758.58,238.021C1758.58,236.264 1758,234.904 1756.85,233.941C1755.69,232.977 1753.9,232.252 1751.48,231.763L1745.48,230.58C1744.01,230.29 1742.61,229.87 1741.27,229.322C1739.92,228.773 1738.72,228.059 1737.67,227.182C1736.61,226.304 1735.78,225.223 1735.17,223.939C1734.56,222.654 1734.25,221.131 1734.25,219.37C1734.25,217.036 1734.88,214.942 1736.15,213.089C1737.41,211.236 1739.15,209.778 1741.37,208.715C1743.59,207.653 1746.15,207.122 1749.05,207.122C1751.96,207.122 1754.56,207.677 1756.86,208.787C1759.15,209.897 1761.01,211.461 1762.42,213.478C1763.84,215.495 1764.63,217.893 1764.78,220.672L1758.26,220.672C1758.16,219.001 1757.72,217.53 1756.92,216.257C1756.12,214.984 1755.06,213.987 1753.74,213.268C1752.42,212.548 1750.87,212.188 1749.1,212.188C1747.31,212.188 1745.8,212.505 1744.56,213.14C1743.32,213.774 1742.38,214.602 1741.73,215.625C1741.07,216.649 1740.75,217.764 1740.75,218.971C1740.75,220.299 1741.09,221.363 1741.77,222.163C1742.45,222.963 1743.35,223.586 1744.46,224.034C1745.57,224.482 1746.77,224.842 1748.06,225.115L1754.23,226.356C1757.8,227.091 1760.55,228.292 1762.48,229.961C1764.4,231.63 1765.36,234.022 1765.36,237.137Z" style="fill:white;fill-rule:nonzero;"/>
                    </g>
                </g>
            </g>
        </g>
    </g>
    <defs>
        <linearGradient id="_Linear1" x1="0" y1="0" x2="1" y2="0" gradientUnits="userSpaceOnUse" gradientTransform="matrix(64.5086,0,0,64.5086,857.491,176.506)"><stop offset="0" style="stop-color:rgb(26,26,26);stop-opacity:0"/><stop offset="1" style="stop-color:rgb(239,48,48);stop-opacity:1"/></linearGradient>
        <linearGradient id="_Linear2" x1="0" y1="0" x2="1" y2="0" gradientUnits="userSpaceOnUse" gradientTransform="matrix(67.7496,0,0,57.6677,836.632,243.27)"><stop offset="0" style="stop-color:rgb(26,26,26);stop-opacity:1"/><stop offset="0.47" style="stop-color:rgb(91,16,214);stop-opacity:1"/><stop offset="1" style="stop-color:rgb(61,32,224);stop-opacity:0"/></linearGradient>
        <linearGradient id="_Linear3" x1="0" y1="0" x2="1" y2="0" gradientUnits="userSpaceOnUse" gradientTransform="matrix(-24.7712,-24,24,-24.7712,1095.93,256)"><stop offset="0" style="stop-color:rgb(1,63,243);stop-opacity:1"/><stop offset="1" style="stop-color:rgb(61,32,224);stop-opacity:0"/></linearGradient>
        <linearGradient id="_Linear4" x1="0" y1="0" x2="1" y2="0" gradientUnits="userSpaceOnUse" gradientTransform="matrix(-20.2014,23.3232,-23.3232,-20.2014,985,215.89)"><stop offset="0" style="stop-color:rgb(121,0,204);stop-opacity:1"/><stop offset="0.4" style="stop-color:rgb(115,3,206);stop-opacity:0.9"/><stop offset="0.56" style="stop-color:rgb(103,10,210);stop-opacity:0.7"/><stop offset="0.7" style="stop-color:rgb(91,16,214);stop-opacity:0.5"/><stop offset="1" style="stop-color:rgb(61,32,224);stop-opacity:0"/></linearGradient>
    </defs>
</svg>
