<svg xmlns="http://www.w3.org/2000/svg" xml:space="preserve" style="fill-rule:evenodd;clip-rule:evenodd;stroke-linejoin:round;stroke-miterlimit:2" viewBox="0 0 284 40">
  <path d="M131.514 228.809h-33c-8.285 0-15-6.715-15-15V112c0-4.828 2.281-9.124 5.824-11.867a14.94 14.94 0 0 1 9.613-3.485h144c8.279 0 15 6.721 15 15 0 2.119-.44 4.137-1.235 5.965-2.224 5.502-7.618 9.387-13.912 9.387H113.951v71.457h17.563v-18.369c0-4.828 2.281-9.124 5.824-11.867a14.94 14.94 0 0 1 9.613-3.485h24c8.279 0 15 6.721 15 15 0 2.119-.44 4.137-1.235 5.965-2.224 5.502-7.618 9.387-13.912 9.387h-8.853v38.56h54.647c5.516 0 10.341 2.984 12.947 7.425a14.9 14.9 0 0 1 2.266 7.927c0 8.279-6.721 15-15 15h-70.297c-8.285 0-15-6.716-15-15z" style="fill:#1a1a1a" transform="translate(-19.961 -23.1)scale(.239)"/>
  <path d="M856.727 185.232v-17.451h74.169c4.759 0 8.624 3.864 8.624 8.624a8.6 8.6 0 0 1-.71 3.43 8.63 8.63 0 0 1-7.999 5.397z" style="fill:url(#a)" transform="translate(-348.881 -69.75)scale(.4157)"/>
  <path d="M836.632 250.338v-14.854h10.084v-8.99c0-2.363 1.311-4.465 3.349-5.808 1.496-1.064 3.424-1.705 5.527-1.705h13.798c4.76 0 8.625 3.289 8.625 7.341a6.4 6.4 0 0 1-.71 2.919c-1.279 2.692-4.38 4.594-7.999 4.594h-5.09v18.871h31.419c3.172 0 5.946 1.46 7.444 3.633.826 1.126 1.303 2.456 1.303 3.88 0 4.051-3.864 7.341-8.624 7.341H855.34c-4.763 0-8.624-3.287-8.624-7.341v-9.881z" style="fill:url(#b)" transform="matrix(.4157 0 0 .4884 -340.53 -90.676)"/>
  <path d="M1062.05 226.316h27.59v20.233h31.42a8.64 8.64 0 0 1 7.45 4.269 8.63 8.63 0 0 1 1.3 4.558c0 4.76-3.87 8.624-8.63 8.624h-40.41a8.625 8.625 0 0 1-8.63-8.624v-11.609h-10.09z" style="fill:url(#c)" transform="translate(-434.244 -69.75)scale(.4157)"/>
  <path d="M952.226 243.767v-17.451h10.097v-10.561a8.61 8.61 0 0 1 3.349-6.823 8.6 8.6 0 0 1 5.527-2.004h13.799c4.76 0 8.624 3.864 8.624 8.624a8.6 8.6 0 0 1-.71 3.43 8.63 8.63 0 0 1-7.999 5.397h-5.09v22.17h-17.5v-2.782z" style="fill:url(#d)" transform="translate(-388.59 -69.75)scale(.4157)"/>
  <path d="m928.015 249.318-6.786-25.926-6.786 25.926h-11.078l-10.556-41.644h10.73l5.626 24.824 6.612-24.824h11.078l6.38 24.94 5.684-24.94h10.73l-10.614 41.644zM982.361 239.806v9.512h-29.464v-41.644h29.058v9.512h-18.096v5.974h16.414v9.512h-16.414v7.134zM1020.82 235.688c0 2.861-.73 5.355-2.18 7.482q-2.175 3.189-6.12 4.959c-2.63 1.179-5.76 1.769-9.4 1.769q-5.387 0-9.42-1.827-4.03-1.828-6.38-5.191-2.349-3.365-2.755-7.946h11.078q.117 2.958 2.001 4.698 1.886 1.74 5.246 1.74c1.28 0 2.38-.155 3.31-.464s1.65-.774 2.17-1.392c.53-.619.79-1.354.79-2.204 0-.89-.4-1.653-1.19-2.291s-1.81-1.073-3.05-1.305l-7.595-1.45q-2.493-.465-4.524-1.45-2.03-.987-3.509-2.465a10 10 0 0 1-2.262-3.48q-.783-2.001-.783-4.495 0-3.887 2.088-6.873 2.088-2.988 5.742-4.669 3.654-1.683 8.353-1.682c3.32 0 6.27.599 8.84 1.798 2.58 1.198 4.64 2.89 6.21 5.075q2.355 3.276 2.64 7.801h-11.08c-.08-1.276-.41-2.378-.98-3.306a6 6 0 0 0-2.27-2.146c-.92-.503-2.01-.754-3.24-.754q-1.635 0-2.789.522-1.16.522-1.798 1.421-.638.898-.638 2.059 0 .927.551 1.595.552.667 1.479 1.102.93.435 2.025.667l8.07 1.566c3.71.734 6.53 2.02 8.47 3.857 1.93 1.836 2.9 4.263 2.9 7.279M1044.65 249.318h-10.96v-31.726h-12.76v-9.918h36.48v9.918h-12.76zM1077.89 250.188c-3.02 0-5.82-.532-8.41-1.595a20.7 20.7 0 0 1-6.82-4.524c-1.95-1.953-3.48-4.254-4.58-6.902q-1.65-3.974-1.65-8.729 0-4.757 1.65-8.7c1.1-2.63 2.63-4.911 4.58-6.844a20.9 20.9 0 0 1 6.82-4.495c2.59-1.064 5.39-1.595 8.41-1.595 3.01 0 5.83.531 8.44 1.595q3.915 1.594 6.84 4.495c1.95 1.933 3.48 4.214 4.58 6.844q1.65 3.943 1.65 8.7 0 4.755-1.65 8.729c-1.1 2.648-2.63 4.949-4.58 6.902a20.5 20.5 0 0 1-6.84 4.524c-2.61 1.063-5.43 1.595-8.44 1.595m0-9.802q2.43 0 4.35-.928a9.2 9.2 0 0 0 3.22-2.581c.87-1.102 1.52-2.378 1.97-3.828.44-1.45.67-2.987.67-4.611s-.23-3.152-.67-4.582c-.45-1.431-1.1-2.688-1.97-3.77a9.3 9.3 0 0 0-3.22-2.552q-1.92-.928-4.35-.928-2.445 0-4.35.928a9.2 9.2 0 0 0-3.22 2.552c-.87 1.082-1.53 2.339-1.97 3.77-.45 1.43-.67 2.958-.67 4.582s.22 3.161.67 4.611c.44 1.45 1.1 2.726 1.97 3.828a9.1 9.1 0 0 0 3.22 2.581q1.905.928 4.35.928M1130.55 249.318l-16.59-25.984v25.984h-10.03v-41.644h11.77l15.37 24.07v-24.07h10.04v41.644z" style="fill-rule:nonzero" transform="translate(-235.322 -47.13)scale(.2937)"/>
  <path d="M1199.92 237.381c0 3.767-1.29 6.698-3.86 8.794q-3.87 3.143-10.35 3.143h-15.28v-41.644h14.49q6.315 0 9.87 2.826c2.37 1.884 3.56 4.574 3.56 8.07 0 1.975-.56 3.757-1.67 5.346-1.12 1.588-2.68 2.816-4.7 3.682 2.6.751 4.57 1.969 5.92 3.654s2.02 3.728 2.02 6.129m-15.43-24.585h-8.16v12.486h8.16c2.53 0 4.46-.56 5.78-1.681s1.99-2.646 1.99-4.576-.67-3.451-1.99-4.562-3.25-1.667-5.78-1.667m.79 17.608h-8.95v13.791h8.95q4.11 0 6.33-1.855t2.22-5.158q0-3.186-2.22-4.982t-6.33-1.796M1224.55 250.188c-3.02 0-5.81-.552-8.38-1.655s-4.82-2.64-6.73-4.613c-1.91-1.972-3.4-4.277-4.46-6.916-1.07-2.639-1.6-5.494-1.6-8.566s.53-5.918 1.6-8.538c1.06-2.619 2.55-4.91 4.46-6.873s4.16-3.491 6.73-4.584 5.36-1.639 8.38-1.639c3.01 0 5.81.546 8.38 1.639a20.4 20.4 0 0 1 6.72 4.584c1.92 1.963 3.4 4.254 4.47 6.873q1.59 3.93 1.59 8.538t-1.59 8.566c-1.07 2.639-2.55 4.944-4.47 6.916a20.5 20.5 0 0 1-6.72 4.613c-2.57 1.103-5.37 1.655-8.38 1.655m0-5.721q3.285 0 5.97-1.239a13.6 13.6 0 0 0 4.61-3.438c1.29-1.467 2.27-3.172 2.95-5.115q1.02-2.914 1.02-6.237t-1.02-6.224c-.68-1.934-1.66-3.624-2.95-5.072a13.6 13.6 0 0 0-4.61-3.394q-2.685-1.224-5.97-1.224c-2.2 0-4.19.408-5.98 1.224a13.6 13.6 0 0 0-4.61 3.394c-1.28 1.448-2.27 3.138-2.96 5.072-.69 1.933-1.04 4.008-1.04 6.224 0 2.215.35 4.294 1.04 6.237s1.68 3.648 2.96 5.115a13.6 13.6 0 0 0 4.61 3.438c1.79.826 3.78 1.239 5.98 1.239M1266.24 249.318h-6.38v-35.897h-13.59v-5.747h33.56v5.747h-13.59zM1286.88 233.849h19.34l1.75 5.122h-23.22zm22.25 15.469-12.7-34.697-12.87 34.697h-6.41l15.96-41.644h7.01l15.84 41.644zM1348.32 249.318l-21.91-32.521v32.521h-5.93v-41.644h6.99l21.37 31.641v-31.641h5.92v41.644zM1362.61 207.674h6.406v41.644h-6.406zM1395.07 250.188c-2.9 0-5.6-.551-8.11-1.653a20.05 20.05 0 0 1-6.56-4.626q-2.805-2.971-4.38-6.931-1.56-3.959-1.56-8.54 0-4.582 1.56-8.512 1.575-3.93 4.38-6.873a20.3 20.3 0 0 1 6.56-4.596c2.51-1.102 5.21-1.653 8.11-1.653 3.47 0 6.64.718 9.52 2.156a19.7 19.7 0 0 1 7.17 6.037c1.9 2.586 3.11 5.598 3.61 9.034h-6.75q-.585-3.378-2.49-5.971a13.6 13.6 0 0 0-4.74-4.064q-2.82-1.472-6.27-1.472c-2.07 0-3.98.394-5.7 1.181-1.72.788-3.2 1.891-4.46 3.309-1.25 1.419-2.22 3.1-2.9 5.043q-1.02 2.915-1.02 6.381 0 3.496 1.02 6.424c.68 1.953 1.65 3.643 2.9 5.072a13.4 13.4 0 0 0 4.46 3.338c1.72.797 3.63 1.195 5.7 1.195 2.32 0 4.42-.495 6.31-1.486 1.9-.99 3.47-2.359 4.73-4.108q1.875-2.622 2.46-5.971h6.75c-.5 3.436-1.71 6.452-3.61 9.048a19.74 19.74 0 0 1-7.17 6.066c-2.88 1.448-6.05 2.172-9.52 2.172M1425.18 233.849h19.35l1.74 5.122h-23.22zm22.25 15.469-12.7-34.697-12.87 34.697h-6.41l15.96-41.644h7.01l15.85 41.644zM1484.04 249.318h-25.25v-41.644h6.4v35.896h18.85z" style="fill-rule:nonzero" transform="translate(-236.675 -47.13)scale(.2937)"/>
  <path d="M1530.57 237.137c0 2.408-.63 4.577-1.88 6.506s-3.06 3.454-5.42 4.574c-2.37 1.12-5.24 1.681-8.62 1.681q-5.01 0-8.64-1.724t-5.67-4.836c-1.36-2.075-2.13-4.492-2.32-7.251h6.49c.17 2.642 1.1 4.755 2.77 6.339q2.505 2.377 7.26 2.377 2.655 0 4.74-.805 2.085-.804 3.3-2.338c.81-1.023 1.21-2.236 1.21-3.639q0-2.636-1.74-4.08c-1.15-.964-2.94-1.689-5.36-2.178l-6-1.183a23 23 0 0 1-4.22-1.258 13.6 13.6 0 0 1-3.59-2.14 9.4 9.4 0 0 1-2.5-3.243c-.61-1.285-.92-2.808-.92-4.569 0-2.334.63-4.428 1.9-6.281q1.89-2.78 5.22-4.374c2.22-1.062 4.78-1.593 7.67-1.593 2.91 0 5.52.555 7.81 1.665 2.3 1.11 4.15 2.674 5.57 4.691s2.21 4.415 2.36 7.194h-6.52c-.1-1.671-.55-3.142-1.34-4.415a8.5 8.5 0 0 0-3.18-2.989c-1.33-.72-2.87-1.08-4.64-1.08-1.79 0-3.31.317-4.54.952-1.24.634-2.19 1.462-2.84 2.485a6.13 6.13 0 0 0-.98 3.346c0 1.328.35 2.392 1.03 3.192s1.58 1.423 2.69 1.871q1.665.672 3.6 1.081l6.17 1.241c3.57.735 6.32 1.936 8.24 3.605 1.93 1.669 2.89 4.061 2.89 7.176M1563.14 243.769v5.549h-26.39v-41.644h25.98v5.548h-19.57v11.86h17.86v5.549h-17.86v13.138zM1575.89 249.318h-6.41v-41.644h15.55c4.8 0 8.55 1.129 11.27 3.388q4.08 3.389 4.08 9.614c0 2.984-.9 5.554-2.69 7.711s-4.26 3.608-7.4 4.352l11.28 16.579h-7.64l-10.36-15.667h-7.68zm0-36.323v15.335h8.73c2.95 0 5.24-.648 6.88-1.944 1.63-1.295 2.44-3.199 2.44-5.71 0-2.51-.81-4.418-2.44-5.723-1.64-1.305-3.93-1.958-6.88-1.958zM1639.71 207.674l-15.35 41.644h-7l-15.3-41.644h6.83l12.13 34.239 12.29-34.239zM1643.94 207.674h6.406v41.644h-6.406zM1676.4 250.188q-4.35 0-8.1-1.653a20.2 20.2 0 0 1-6.57-4.626c-1.87-1.981-3.33-4.291-4.37-6.931-1.05-2.639-1.57-5.486-1.57-8.54 0-3.055.52-5.892 1.57-8.512 1.04-2.62 2.5-4.911 4.37-6.873a20.4 20.4 0 0 1 6.57-4.596q3.75-1.653 8.1-1.653c3.47 0 6.65.718 9.52 2.156a19.7 19.7 0 0 1 7.17 6.037c1.91 2.586 3.11 5.598 3.61 9.034h-6.75q-.57-3.378-2.49-5.971a13.6 13.6 0 0 0-4.73-4.064q-2.835-1.472-6.27-1.472-3.12 0-5.7 1.181a13.2 13.2 0 0 0-4.46 3.309q-1.89 2.129-2.91 5.043t-1.02 6.381q0 3.496 1.02 6.424t2.91 5.072a13.3 13.3 0 0 0 4.46 3.338q2.58 1.195 5.7 1.195c2.31 0 4.41-.495 6.31-1.486 1.89-.99 3.47-2.359 4.72-4.108q1.89-2.622 2.46-5.971h6.75q-.75 5.154-3.6 9.048a19.86 19.86 0 0 1-7.18 6.066c-2.87 1.448-6.05 2.172-9.52 2.172M1728.53 243.769v5.549h-26.38v-41.644h25.98v5.548h-19.58v11.86h17.87v5.549h-17.87v13.138zM1765.36 237.137c0 2.408-.62 4.577-1.88 6.506-1.25 1.929-3.06 3.454-5.42 4.574-2.37 1.12-5.24 1.681-8.62 1.681q-4.995 0-8.64-1.724-3.63-1.723-5.67-4.836c-1.35-2.075-2.13-4.492-2.32-7.251h6.49c.18 2.642 1.1 4.755 2.77 6.339q2.505 2.377 7.26 2.377 2.655 0 4.74-.805 2.085-.804 3.3-2.338c.81-1.023 1.21-2.236 1.21-3.639 0-1.757-.58-3.117-1.73-4.08q-1.74-1.445-5.37-2.178l-6-1.183c-1.47-.29-2.87-.71-4.21-1.258a13.5 13.5 0 0 1-3.6-2.14 9.4 9.4 0 0 1-2.5-3.243c-.61-1.285-.92-2.808-.92-4.569 0-2.334.63-4.428 1.9-6.281q1.89-2.78 5.22-4.374t7.68-1.593c2.91 0 5.51.555 7.81 1.665 2.29 1.11 4.15 2.674 5.56 4.691 1.42 2.017 2.21 4.415 2.36 7.194h-6.52c-.1-1.671-.54-3.142-1.34-4.415a8.5 8.5 0 0 0-3.18-2.989c-1.32-.72-2.87-1.08-4.64-1.08-1.79 0-3.3.317-4.54.952-1.24.634-2.18 1.462-2.83 2.485a6.05 6.05 0 0 0-.98 3.346q0 1.992 1.02 3.192c.68.8 1.58 1.423 2.69 1.871q1.665.672 3.6 1.081l6.17 1.241q5.355 1.102 8.25 3.605 2.88 2.504 2.88 7.176" style="fill-rule:nonzero" transform="translate(-235.322 -47.13)scale(.2937)"/>
  <defs>
    <linearGradient id="a" x1="0" x2="1" y1="0" y2="0" gradientTransform="translate(857.491 176.506)scale(64.5086)" gradientUnits="userSpaceOnUse">
      <stop offset="0" style="stop-color:#1a1a1a;stop-opacity:0"/>
      <stop offset="1" style="stop-color:#ef3030;stop-opacity:1"/>
    </linearGradient>
    <linearGradient id="b" x1="0" x2="1" y1="0" y2="0" gradientTransform="matrix(67.7496 0 0 57.6677 836.632 243.27)" gradientUnits="userSpaceOnUse">
      <stop offset="0" style="stop-color:#1a1a1a;stop-opacity:1"/>
      <stop offset=".47" style="stop-color:#5b10d6;stop-opacity:1"/>
      <stop offset="1" style="stop-color:#3d20e0;stop-opacity:0"/>
    </linearGradient>
    <linearGradient id="c" x1="0" x2="1" y1="0" y2="0" gradientTransform="matrix(-24.7712 -24 24 -24.7712 1095.93 256)" gradientUnits="userSpaceOnUse">
      <stop offset="0" style="stop-color:#013ff3;stop-opacity:1"/>
      <stop offset="1" style="stop-color:#3d20e0;stop-opacity:0"/>
    </linearGradient>
    <linearGradient id="d" x1="0" x2="1" y1="0" y2="0" gradientTransform="rotate(130.897 443.19 332.922)scale(30.8556)" gradientUnits="userSpaceOnUse">
      <stop offset="0" style="stop-color:#7900cc;stop-opacity:1"/>
      <stop offset=".4" style="stop-color:#7303ce;stop-opacity:.9"/>
      <stop offset=".56" style="stop-color:#670ad2;stop-opacity:.7"/>
      <stop offset=".7" style="stop-color:#5b10d6;stop-opacity:.5"/>
      <stop offset="1" style="stop-color:#3d20e0;stop-opacity:0"/>
    </linearGradient>
  </defs>
</svg>
