<svg xmlns="http://www.w3.org/2000/svg" xml:space="preserve" fill-rule="evenodd" stroke-linejoin="round" stroke-miterlimit="2" clip-rule="evenodd" viewBox="0 0 250 250">
  <g fill="#fff" fill-rule="nonzero">
    <path d="M85.8 156a1 1 0 0 1-.5-.7V94.7a.6.6 0 1 1 1.1 0v60.6q0 .6-.6.6M60.6 131.5l-2.7 11.8-2.9-11.8h-4l-2.9 11.6-2.6-11.6h-4.3L46 150h4.2l2.8-11.6 2.8 11.6H60v-.2l4.9-18.2zm-39.5 11.7-10-11.7H6.9V150h4v-11.7l10 11.7h4.3v-18.4H21zM6.4 155.5c0-1.6 1.2-3 3-3q1.4 0 2.1.8l-.6.8q-.6-.6-1.6-.7c-1 0-1.8 1-1.8 2q0 1.9 1.9 2 .8 0 1.4-.3V156H9.3v-.9h2.4v2.4q-.8.8-2.3.9c-1.8 0-3-1.3-3-3M17.2 155.5q-.1-1.8-1.9-2-1.8.1-2 2c0 1 .9 2 2 2s2-1 2-2m-5 0a3 3 0 0 1 3-3c1.8 0 3 1.4 3 3a3 3 0 0 1-3 2.9c-1.7 0-3-1.3-3-3M18.2 152.6h1.1L21 157l1.7-4.4h1.1l-2.4 5.7h-.8zM24.5 152.6h4.2v1h-3.2v1.4h2.8v.9h-2.8v1.5h3.2v.9h-4.2zM32.1 155.4q1.2 0 1.2-1 0-.8-1.2-.9h-1.4v2zm-2.4-2.8h2.5q1 0 1.7.6.4.5.4 1.2 0 1.4-1.3 1.8l1.5 2.1h-1.2l-1.4-2h-1.2v2h-1zM35.2 152.6h1l3 4v-4h1v5.7h-.9l-3.1-4v4h-1zM41.2 152.6h1l1.8 2.7 1.7-2.7h1v5.7h-1v-4l-1.7 2.6-1.8-2.7v4.1h-1zM47.7 152.6h4.2v1h-3.2v1.4h2.8v.9h-2.8v1.5h3.2v.9h-4.2zM53 152.6h.9l3 4v-4h1v5.7H57l-3-4v4h-1zM60.5 153.6h-1.8v-1h4.6v1h-1.8v4.7h-1zM26.3 147.3l2.4-2.9a9 9 0 0 0 5.6 2.3q2.6 0 2.7-1.8c0-1-.6-1.6-3.8-2.4-3.7-1-6.1-2-6.1-5.7 0-3.4 2.7-5.7 6.5-5.7q4 0 7 2.4l-2.2 3a9 9 0 0 0-4.9-1.8q-2.3.2-2.4 1.7c0 1.2.8 1.6 4 2.5 3.8 1 6 2.3 6 5.6 0 3.7-2.9 5.8-6.9 5.8q-4.3 0-7.9-3M47.7 102c.2.8 1 5 1 9.5q0 4.8-1.2 8.5c-.8 2.5-2.3 4.1-3.6 5.1q5.1-.1 8.4-5.8a33 33 0 0 0 3.4-15.2c.1-5-.3-6.2-.4-6.7q-.2-.7-.8-.7c-.8 0-4.4 1.6-7.7 4q.6.4 1 1.4"/>
    <path d="M38.7 125.8c2.3 0 6.2-2 7.6-6.2.7-2.3 1-4.5 1-8.1.2-4.4-.6-8.5-.7-8.7q0-.7-.6-1-.6.2-1 .6c-.2.2-6 5.2-8.5 11.5-.5 1.3-1.3 2.6-1.3 6.7 0 1.4.1 3 .8 4a3 3 0 0 0 2.7 1.2M47.4 98.7c-.6-3-1.3-5-1.3-5q-.1-.7-.6-.7t-.8.2l-4.3 3.4c1 1.8 1.8 4 2.4 5.8 1.4-1.1 2.3-2.1 4.6-3.7M64 106.2v-1q-.3-.3-1-.4c-1.2-.1-6 .3-6 .3q-.2 3.1-.6 5.9 2 .7 4.2 1.8c2.8-3.6 3.4-6 3.5-6.6M66.7 118.7q.1-.6-1-1.4a48 48 0 0 0-9.5-5q-.9 4.5-2.8 7.7-1.9 3.4-4.7 5 8.5-.5 13.7-2.9c3.9-1.8 4.4-2.8 4.3-3.4M54.4 126c-1 0-1.7.1-3.2.4q-1.8.3-3.4.2h-4.5a22 22 0 0 0-5.7.5l-.2.2.3.1H40q3.6 0 5.8.8c1.6.3 3 .7 5 .7q3.5 0 4.7-1 .5-.5.4-1.2-.2-.8-1.4-.8M19.4 119.3q3.4 5.6 8.4 5.8c-1.3-1-2.8-2.6-3.6-5.1q-1.2-3.7-1.2-8.5c0-4.5.8-8.7 1-9.4q.3-1 1-1.4c-3.4-2.5-7-4-7.8-4q-.6 0-.7.7c-.2.5-.6 1.7-.5 6.7.1 4.4.7 10.4 3.4 15.2"/>
    <path d="M26.7 102.4q-.4-.5-1-.5-.5.2-.6.9c0 .2-.9 4.3-.8 8.7.2 3.6.4 5.8 1.1 8a9 9 0 0 0 7.7 6.3q.2 0 1.4-.3l.5-.3-.4-.8q-.7-1.5-.7-3.5c0-4 1.3-7 1.4-7.1a33 33 0 0 0-8.6-11.4M35.9 111.9c1.6-3.5 4.1-6.3 6-8.2a52 52 0 0 0-6-12.1q-.4 0-.5.4c-1 1.4-4.4 7.5-5.5 11.7 1.8 1.9 4.3 4.7 6 8.2M31.3 96.6l-4.2-3.4q-.4-.3-.9-.2t-.6.7l-1.3 5c2.3 1.6 3.2 2.6 4.6 3.7.7-1.8 1.4-4 2.4-5.8M11.2 112.8q2-1 4.1-1.8l-.5-5.9s-4.8-.4-6-.3q-.8 0-1 .5t-.1 1c0 .6.6 2.9 3.5 6.5M18.3 120a25 25 0 0 1-2.7-7.7 48 48 0 0 0-9.6 5q-1.1.8-1 1.4c0 .6.5 1.6 4.4 3.4q5 2.4 13.6 3a14 14 0 0 1-4.7-5.1M34.1 127.1a22 22 0 0 0-5.7-.6h-2.3l-2.2.1q-1.6 0-3.3-.2l-3.2-.5q-1.3 0-1.4.8-.2.8.3 1.2c.7.7 2.6 1 4.7 1q2.9-.1 5-.7 2.2-.8 5.8-.9l2.2.1h.3q0-.2-.2-.3M111.2 114.6q3.4-.2 3.6-3-.2-3-3.6-3h-3.4v6zM105 106h6.6c3.8 0 6.3 2.2 6.3 5.5 0 3.8-3 5.8-6.7 5.8h-3.3v5.3H105zM119.7 105.3h2.9v17.3h-2.9zM133.2 118v-.8a8 8 0 0 0-2.8-.5q-3 0-3 2.1.1 2 2.5 2c1.9 0 3.3-1.1 3.3-2.7m-8.6 1c0-2.8 2.1-4 5.2-4q2 0 3.4.4v-.3q0-2.7-3.1-2.7-2 0-3.6.8l-.8-2.3c1.4-.6 2.7-1 4.7-1q3 0 4.2 1.4 1.4 1.4 1.3 3.9v7.4h-2.8V121c-.8 1-2.1 1.9-4 1.9-2.4 0-4.5-1.4-4.5-4M138.5 110h2.9v2q1.1-2 3.9-2.2c2.8 0 4.5 2 4.5 4.8v8h-3v-7.1q0-3-2.6-3-2.7 0-2.8 3v7.1h-2.9zM152.3 110h3v2q1-2 3.8-2.2c2.9 0 4.5 2 4.5 4.8v8h-2.9v-7.1q0-3-2.7-3c-1.6 0-2.8 1-2.8 3v7.1h-2.9zM166.3 110h3v12.6h-3zm0-4.6h3v2.7h-3zM172 110h3v2q1.1-2 3.9-2.2c2.8 0 4.4 2 4.4 4.8v8h-2.8v-7.1q0-3-2.7-3t-2.8 3v7.1h-3zM195.4 115.7c0-2-1.7-3.5-3.7-3.5s-3.5 1.4-3.5 3.5c0 2 1.6 3.5 3.5 3.5 2 0 3.7-1.4 3.7-3.5M186 125l1-2.1q2 1.2 4.5 1.3 4 0 4-3.8v-1a5 5 0 0 1-4.4 2.3c-3 0-5.7-2.2-5.7-5.9s2.8-5.9 5.7-5.9c2.1 0 3.4 1 4.4 2.1v-1.8h2.8v10q0 3-1.5 4.7-1.8 1.6-5.2 1.6-3.1 0-5.6-1.5M210.6 109.3q-.2-2.4-2.6-2.6c-1.7 0-2.9 1.2-2.9 2.7q-.1 1.3 2 3.4 3.5-1 3.5-3.5m.8 9.8-5-5c-2.6.8-3.7 2.4-3.7 4 0 2 1.6 3.6 3.9 3.6q2.7-.1 4.8-2.6m.8.8a7 7 0 0 1-5.7 2.9c-2.9 0-5-2-5-4.6q0-3.5 4.2-5-1.8-1.9-1.8-3.7c0-2.2 1.7-3.9 4.1-3.9 2.2 0 3.8 1.7 3.8 3.6q-.1 3.2-4 4.4l4.3 4.5q1.2-1.8 2.2-4l1.1.4q-1.2 2.6-2.5 4.4l3.1 3.2-1 .8zM105 127.8h12.3v2.6h-9.4v4.4h8.3v2.6H108v4.4h9.5v2.6H105zM119.7 132h2.8v1.8c.8-1.1 2-2.2 4-2.2 2.8 0 4.4 2 4.4 4.8v8H128v-7q0-3-2.7-3.1c-1.6 0-2.8 1.1-2.8 3v7.1h-2.8zM131.8 132h3.1l3.4 9.1 3.4-9.2h3l-5.1 12.6H137zM146.4 132h2.9v12.4h-2.9zm-.1-4.7h3v2.7h-3zM152.2 132h2.8v2.7c.8-1.8 2.3-3.1 4.5-3v3h-.2c-2.5 0-4.3 1.6-4.3 5v4.7h-2.8zM170.5 138.2c0-2.2-1.6-4-3.9-4s-3.8 1.8-3.8 4 1.6 4 3.9 4 3.8-1.8 3.8-4m-10.5 0c0-3.6 2.8-6.6 6.7-6.6 3.8 0 6.6 3 6.6 6.5v.1c0 3.6-2.8 6.5-6.7 6.5-3.8 0-6.6-2.9-6.6-6.5M175.4 132h2.8v1.8c.9-1.1 2-2.2 4-2.2 2.8 0 4.4 2 4.4 4.8v8h-2.8v-7q0-3-2.7-3.1-2.7 0-2.9 3v7.1h-2.8zM189.2 132h2.9v1.8c.8-1.1 1.9-2.2 3.8-2.2a4 4 0 0 1 3.7 2.3 5 5 0 0 1 4.3-2.3q4.2.2 4.4 4.8v8h-3v-7q0-3-2.4-3.1-2.5 0-2.7 3v7.1h-2.9v-7.1q-.1-3-2.5-3-2.5 0-2.7 3v7.1h-2.9zM219.5 137.3c-.2-1.9-1.3-3.3-3.2-3.3q-2.8.2-3.3 3.3zm-9.3 1v-.1c0-3.6 2.5-6.6 6.1-6.6 4 0 6 3.2 6 6.8v.8H213q.6 3.1 3.6 3.2 2 0 3.4-1.5l1.6 1.5a6 6 0 0 1-5 2.3 6.3 6.3 0 0 1-6.5-6.5M224.3 132h2.9v1.8c.8-1.1 2-2.2 4-2.2 2.7 0 4.4 2 4.4 4.8v8h-2.9v-7q0-3-2.7-3.1-2.6 0-2.8 3v7.1h-2.9zM238.8 141v-6.6h-1.6v-2.5h1.6v-3.4h2.8v3.4h3.4v2.5h-3.4v6.1q0 1.6 1.6 1.6.9 0 1.8-.4v2.3a5 5 0 0 1-2.6.7c-2.1 0-3.6-1-3.6-3.7"/>
  </g>
</svg>
