<svg xmlns="http://www.w3.org/2000/svg" xml:space="preserve" fill-rule="evenodd" stroke-linejoin="round" stroke-miterlimit="2" clip-rule="evenodd" viewBox="0 0 250 250">
  <g fill="#fff">
    <path fill-rule="nonzero" d="M122.8 93a23 23 0 0 0-25.4-5 22 22 0 0 0-7.3 5q-3.1 3.2-5 7.5a22 22 0 0 0-1.8 8.9 23 23 0 0 0 6.8 16.3q3.3 3.3 7.3 5 4.2 1.9 9 1.8h13.3v-9.2h-13.2a14 14 0 0 1-10-4 13 13 0 0 1-2.9-4.5q0-.5-.3-.8h13v-9.3h-13l.3-.7a13 13 0 0 1 3-4.5 14.3 14.3 0 0 1 15.3-3 13 13 0 0 1 4.4 3 13 13 0 0 1 3.7 6.5 22 22 0 0 1 3.8-10l.8-1q-.7-1-1.8-2"/>
    <path fill-rule="nonzero" d="M166 101.3a23.3 23.3 0 0 0-37.8-7.5 23 23 0 0 0-6.7 16.4v41s-.7 7.6-10 7.6h29c-8.9 0-9.8-7-10-7.6v-17.9h14.1a23 23 0 0 0 16.4-6.7q3.3-3.3 5-7.3 1.8-4.3 1.8-9.1 0-4.6-1.8-9m-8.5 14.3a16 16 0 0 1-3 4.5 14.2 14.2 0 0 1-9.9 4h-14v-13.9a14 14 0 0 1 4-9.9 13 13 0 0 1 4.5-3q2.6-1 5.4-1a14 14 0 0 1 9.9 4 13 13 0 0 1 3 4.5q1 2.6 1 5.4.3 3-1 5.4M51.2 188.4H39.1q0 1.6 1.5 2.7 1.4 1 3.2 1 2.9 0 4.5-1.8l1.9 2a8 8 0 0 1-6.5 2.6q-3.2 0-5.6-2.2a8 8 0 0 1-2.3-5.8q0-3.6 2.3-5.8a8 8 0 0 1 5.6-2.2q3.1 0 5.4 1.9 2.2 1.8 2.1 5.3zm-12.1-2.6H48q0-2-1.2-3t-3-1q-1.8 0-3.2 1-1.6 1.1-1.5 3M61.7 195q-3.2 0-5.6-2.2a7 7 0 0 1-2.3-5.8q0-3.6 2.5-5.8a9 9 0 0 1 6-2.3q3.3 0 5.9 2.4l-2 2.3a6 6 0 0 0-4-1.7q-2 0-3.5 1.3t-1.5 3.6a5 5 0 0 0 1.5 3.6 5 5 0 0 0 3.6 1.5q2.3 0 4.1-2l1.9 2.1q-2.8 3-6.6 3M84.3 192.6a8 8 0 0 1-5.9 2.3 8 8 0 0 1-5.8-2.3 7 7 0 0 1-2.3-5.7q0-3.4 2.3-5.7a8 8 0 0 1 5.8-2.3 8 8 0 0 1 5.9 2.3 7 7 0 0 1 2.3 5.7q.1 3.4-2.3 5.7m-9.4-2q1.5 1.3 3.5 1.3 2.1 0 3.6-1.4 1.4-1.3 1.3-3.6t-1.3-3.7q-1.5-1.4-3.6-1.3-2 0-3.5 1.3-1.4 1.5-1.3 3.7t1.3 3.6M98.7 179q3.1 0 5.5 2a8 8 0 0 1 2.1 5.9q0 3.6-2.1 5.8A7 7 0 0 1 99 195a7 7 0 0 1-5.3-2.6v8h-3.2v-21.2h3.2v2.7q1.9-3 5-3m-5.1 8q0 2.2 1.4 3.7 1.4 1.4 3.2 1.3t3.4-1.3a5 5 0 0 0 1.5-3.7 5 5 0 0 0-4.8-5.1q-2 0-3.2 1.5-1.3 1.4-1.5 3.6"/>
    <path d="M113.2 173v21.7H110v-21.6z"/>
    <path fill-rule="nonzero" d="M130.7 194.7h-3.1v-2a7 7 0 0 1-5.2 2.3q-2.5 0-4-1.3-1.7-1.5-1.7-3.7t1.8-3.4q1.6-1.1 4.6-1h4.2v-.6q.1-3-3.4-3.1-2.3 0-4.4 1.6l-1.5-2q2.8-2.3 6.5-2.3 2.8 0 4.4 1.3 1.8 1.5 1.8 4.4zm-3.4-5.8v-1.3h-3.7q-3.5 0-3.5 2.1 0 1.2.8 1.8.9.5 2.5.5 1.5 0 2.7-.8t1.2-2.3M138.4 186.4v8.3H135v-15.5h3.3v2.8q.7-1.4 2.2-2.3 1.4-.8 3-.8 2.5 0 4.1 1.6 1.7 1.6 1.7 4.6v9.5H146v-8.5q0-4.3-3.5-4.3-1.6 0-3 1a5 5 0 0 0-1.2 3.5M157.3 186.4v8.3h-3.2v-15.5h3.2v2.8q.9-1.4 2.2-2.3t3-.8q2.5 0 4.2 1.6 1.5 1.6 1.6 4.6v9.5h-3.2v-8.5q0-4.3-3.6-4.3-1.6 0-3 1a5 5 0 0 0-1.2 3.5M173.2 176q-.7-.6-.7-1.4 0-.9.7-1.5t1.5-.7 1.4.7.7 1.5-.7 1.5q-.6.6-1.4.6-1 0-1.5-.6m3 18.7h-3.3v-15.5h3.2zM184.1 186.4v8.3H181v-15.5h3.2v2.8a5.8 5.8 0 0 1 5.1-3.1q2.7 0 4.3 1.6t1.6 4.6v9.5h-3.2v-8.5q0-4.3-3.6-4.3-1.6 0-3 1a5 5 0 0 0-1.2 3.5M214.2 179v13.7q0 4.2-2.3 6.2a8 8 0 0 1-5.7 2 10 10 0 0 1-6.4-2.1l1.5-2.4q2.3 1.6 4.6 1.7 2.4 0 3.7-1.2t1.3-3.8V191q-.8 1.5-2 2.2a6 6 0 0 1-3.1.8q-3 0-5.2-2.1a8 8 0 0 1-2-5.4q0-3.3 2-5.5 2-2.1 5-2.1 3.1 0 5 2.5V179zm-12.2 7.3q0 2 1.2 3.3a4 4 0 0 0 3.3 1.3 4 4 0 0 0 3.2-1.3 5 5 0 0 0 1.2-3.4 5 5 0 0 0-1.2-3.4 4 4 0 0 0-3.2-1.3q-2.1 0-3.2 1.5-1.3 1.4-1.3 3.3M126 61h-.3c-14.2 11.5-13.2 24.2-13.2 24.2 5.3.5 9.7 3.9 11.8 5.8l1.5-20.6 1.5 20.6a21 21 0 0 1 11.8-5.8c.1.1 1-12.7-13.1-24.2"/>
  </g>
</svg>
