<svg xmlns="http://www.w3.org/2000/svg" xml:space="preserve" fill-rule="evenodd" stroke-linejoin="round" stroke-miterlimit="2" clip-rule="evenodd" viewBox="0 0 250 250">
  <g fill="#fff">
    <path d="M174.7 59c9.1 2.8 18.2 8.5 23 17.3a69 69 0 0 1 7.2 31.6l.1 8c0 13.3-1.7 25.6-6 37.3a32 32 0 0 1-7.4 11.5q-5.4 4.4-11.2 7.8l-7.9 4.6q-4.5 2.5-9.1 4.9l-8 4-10.1 4.6c-6.3 2.7-12.5 5.4-19.1 7.1-4.4 1.3-8.4-.8-12.2-2q-9.1-3.5-17.9-7.8l-8.3-4.2c-10-5.4-20.1-10.9-29-18.2-8-6.8-10.4-17-12.2-26.7A134 134 0 0 1 48 90.2a49 49 0 0 1 11.5-23.7c5.2-4.7 11.5-7 17.8-9 16.9-4.7 34.5-6 52.7-5.5 15.4.8 30.6 2.3 44.7 7m2.8 3A35 35 0 0 1 195 75.3a60 60 0 0 1 8 29.2c.8 16.7-.1 34.2-6 48.9-1.8 3.7-3.6 7.6-7 10.3-8.2 6.4-16.9 11-25.8 15.7l-9 4.5-9.9 4.7c-6.3 2.6-12.5 5.4-19.2 7.2-3 1.1-6.2-.2-9-1q-5.3-2-10.6-4.2l-8.1-3.7c-12.3-6-24.6-12.4-35.8-20.7-2.9-2.4-6-5-7.7-8.1a65 65 0 0 1-7.4-25.8L47 124c-.5-14.9 1-30.2 6-43.8 2.4-5.8 6-11.9 11.7-15.3a86 86 0 0 1 30.8-9.3q8.1-1.2 16.5-1.6l8.5-.2c18.2 0 36.8 1.6 53.8 7z"/>
    <path d="M164.9 74.4c6.7 2 14.1 4.5 17.8 11s4.6 15 5 22a116 116 0 0 1-2.8 34.4c-1.3 4.6-3.6 10-8.3 12.8-5.7 3.5-11.9 5.5-18.3 7.3l-7.7 2-8 1.7q-9.3 2-19.2 2.8-8.6-.7-16.6-2.5a136 136 0 0 1-33.3-10.6 17 17 0 0 1-8-9 95 95 0 0 1-3.4-34.6c.4-9.7 1.3-19.4 5.6-27.6 1.8-3.3 5-6 8.5-7.6 9.1-4 19.5-5.4 29.5-6.4l8.4-.6q24-.9 46.8 3.9zm-87.7 29.2v-.1q-5.2-4.4-12-5.9l-.5 4c3.3.2 6.6.9 9.2 3zm-6.8 4.5c0-.4.3-.8.1-1.2l-3.7 2q-.8 3.5-3 6.3l-.1 3.3v.1c2.5-3.1 5.2-6.6 6.7-10.5m36.7-9.7c2.4 1.4 4.7 3.6 6.7 5.5l-.4-2.7-2.3-1.9c-1.6-1.1-3.2-2.2-5.2-2.5zM164 76.1q-.7-.3-1.4-.4.3 1.6.5 3.2.8-1.3.9-2.8m16.2 40.1q-3-2.2-5.2-5.1h-3.5q.2.6.5 1.2 1.5 2.2 3.5 4 2.6 2.3 5.7 4.5l-.9.1-.9-.7q-2.5-1.9-4.8-4-2.4-2-3.8-5.1-1.6 0-3.2-.3v.5q1.8 2.7 3.9 5l5 5h-.5c-2-1.7-3.2-3-5-4.7l-.3-.4c-1.4-1.5-3-3.2-3.8-5.4l-3.5-.4q0 .7.3 1.2a20 20 0 0 0 3.4 4.6q2.8 2.8 5.9 5.2h-1l-3.3-2.9-2.4-2.3a12 12 0 0 1-3.5-5.8q-1.6-.3-3.2-.2 0 .8.3 1.3 1.3 2.7 3.4 4.7 2.7 2.6 5.2 4.7l-1.1-.3c-.8-.5-1.9-1.6-2.6-2.1l-2.3-2.3a16 16 0 0 1-3.3-5q0-.5-.3-1h-3.8v.1q1.7 3.3 4.5 6l2.6 2.3.2.2-1.8-.9-1.8-1.7a27 27 0 0 1-4.6-6l-3.2.4q2.4 3.4 5.9 5.6l.5.4h-.3l-1.1-.4h-.3a25 25 0 0 1-5.6-5.5c-1.1.2-2.4.1-3.4.5 2 1 2.9 3 4.8 4.2l-1-.2c-2.1-1.5-3.4-4.4-6.4-3.5q-.2 0-.4.2 2.2 1.7 4.3 3.3h-.9q-1.7-1-3-2.4c-1.7-1.3-3.7 0-5.4.5q1.2 0 2.3.2l-.2.4q1.6.4 2.8 1.5h-.8a9 9 0 0 0-2.9-1.1c-.8.4-1.6-.2-2.5-.1q-.7-.2-1.5 0l2 1-1 .5q-1.7-.6-3.3 0 .7.2 1.4.5-.7.4-1.4.6c-.8.8-1.8 0-2.9.2q-.9 0-1.6.4 1 .2 1.8.6l-1.6 1q-1.4-.1-2.6.2-.3 0-.5.3h1.3q.4 0 .5.3l-2 1.3q-.7-.1-1.3.1c.1.3.5.1.7.4l-.7.7q-.3.3-.3.7h.5l.8-.7c7.6-5.2 17.4-7 26.7-5.4 4.3.6 7.5 3 11 5.4l1.9 1.2q3.5 2 7.5 2 .4 0 .3-.4-.9-.7-2-1v-.1q1.5-.4 3-.3h.1c2.4-.1 5 0 7.1 1.1 1.3.7 2.5 2 2.5 3.6v.2h-.2q-.2-.2-.5-.2h-.9q-.5 0-.8.2 1 .5 1 1.6-.8 1-2.1 1-.3-.7-.7-1.3a1 1 0 0 0-.8.3q-.3.5 0 1.2-1 .3-1.8 0c-1-.3-.5-1.8-1.7-2q-.1 1-.1 1.7-1.3.2-2.4-.4 0-.6-.2-1.1-.3-.9-1-1v1.5l-.1.1q-1 .2-2-.1c-.8-.2-.5-1-.6-1.7l-.1-.5q-.2-.5-.8-.4l-.1.9-.1.9q-1.2 0-2-.4-.5-.2-.5-.5c-.2-.7.3-1.5 0-2.1l-1-.4q.1 1-.4 1.8c-1 .2-1.7-.5-2.5-1v-2.2c.1-.6-.7-.8-1-1q-.1 1.4-.2 2.7l-2.3-1.4q.2-1.4-.3-2.5-.3-.6-1-1l.1 1q0 1-.2 2l-2.5-1.1v-.9q-.1-1.2-1-2.2-.3-.3-.7-.1l.6 2.8h-.1l-2.2-.3-.1-.1v-.1a5 5 0 0 0-1.7-3h-.7q1 1.3 1 3h-2.5q-.7-1.7-2-3h-1.3q.8.8 1.2 1.7.4.6.3 1.3h-.7l-2 .3-.1-.3-2-2.4-1 .3 1.5 2.1v.1q-1.2.5-2.5.9l-1.1-1-1.3-1-1 .2q.1.4.4.8l.9 1.3-2.8.6-2-1.6c-.4-.5-.6.2-.9.4l1.4 1.6q-1.1.6-2.4 1.1-1.1-.9-2.4-.9v1a29 29 0 0 1 9 2.6l2 1.1q1.1.3 1.9-.4l.5-.7q.2-1 .1-1.9c.1-1 .7-2.2 1.7-2.6 1.5-.8 3.7-.7 5.2.1q1 .6 1.6 1.5 1.6.7 3.3 1 1 0 1.8.6c-1 .5-2 0-3 .1-.8.1-1.6 0-2.2.6l-.2.6v.7c.7 1.2 2 2 2.2 3.5l-2-1.5c-1.6-.7-2.8.7-4 1.2q-1.6.8-2.8 2.1c-1.5 1.6-2.6 3.6-4.2 5.2-1.1 1.3-3 1.3-4.5 2-2.5 1.5-6 2.3-9.1 2.6-1.1 0-2-.2-2.8.6-.5.5-.2 1.2 0 1.7l4.7 4.7 3.4 1.6c.8 1 2 1.2 3 1.6 1.5.4 2.5 2 4 2.4 8.1 2.9 18 2.3 26.7 1.8l4.3-1.5c4.3-1.8 9-3.4 12-7.5a39 39 0 0 0 5.3-15.2l.8-6 .2-1.8.2-4.3v-2.6q-3-1.4-5.7-3.5m5.7-1.8q-3.7-1.1-6.4-3.7l-3.7.3q1.3 2 3.2 3.5 3.2 3 7 4.5v-4.4zm-108-16.6a38 38 0 0 1 5.2 4.9l3.1.2q-1.7-3.1-3.8-6.2l-1.2.4-1-3-.7-1-1 .1c-.5 1.4-.2 2.9 0 4.4q-.2.3-.5.2m74.5-6.1.1.1q1.6-1.3 3.1-3c-.4-2.6-.6-5.1-1.6-7.5h-.7l.6-.3a13 13 0 0 1-2.3-7.5q-1.4-.3-2.7-.4-.2 3.1 1.3 5.6 1.7 6.2 2.2 13M135 87.2q2.9-1 5.2-2.8.2-1.9-.3-3.6h-.2q-2.3 1.6-4.8 2.9-3 1-5.1 3.5l-.8 3.4q3-1.8 6-3.4m-70.9 40 5-6.1c3.6-4.8 7.1-9.4 9.4-14.8q.5-1.2.5-2.3-1.9.3-3.8 1 0 1.1-.4 2.2a50 50 0 0 1-11 17q0 1.6.2 3.1zm116.3-16.6q2.3 2.4 5.6 3.1V109q-2.3 1.1-5 1.5-.4 0-.6.2M102 79.1h.1q1.3-3 1.2-6.6l-.1-.3q-1.5 0-2.9.3.5 2.7-.3 5zm61.8 6.5a17 17 0 0 0-4.2 0l-1.8 2.1c5.7.1 11.4.1 16.8 1q.2-1.5-.9-3-2.7.6-5.5.5-2.3 0-4.4-.6m-42.9 25.8q1.4-.4 2.6-1c1.4-.4 2-1.8 3-2.7l.1-.2q-2.3 1-4.7 1.8zM166.3 82l.1-.1q-1-.4-2-.4c-.6 0-1.8-.7-2 .4q2 .2 3.9 0m-5.6-2q.9 0 1.8-.2 0-2.2-.7-4.2l-2.7-.6 1.5 4.9zm-33.5 16.7q0 .4-.3.7l-.5 1.6h.1c2.1-1.5 4.7-2.2 7-3.3q1.9-.8 3.5-2l1.8-3.6v-.3q-2.2 1-4.5 2.3-3.1 2-6.7 3.2zM158 81zl.8 4.5q1.1-1.2 2-2.6-.2-1-.5-1.9zm5.8 4c3 1 6.6.7 9.4.2a8 8 0 0 0-2.7-2l-2-1q-3.3.6-6.5.2l-1.7 2.5q1.8-.2 3.5 0m-21.6-6 .6 1.7q0 .8.3 1.4 1-.7 1.9-1.5c-.2 1.2-1.3 1.7-2 2.4q-.1 3-1.3 5.6a60 60 0 0 1-10.4 15.5q-.6.5-.8 1.1l-3 3v.3l-6.5 6 4.6-1.7.4-.3q.2-1 .5-1.9l.9-.8-.6 1.9 1.8-1.3q0-1.2.4-2.2l1.2-1.2-.2.4q-.6 1-.7 2.3l2.5-2q-.2-1.2.2-2.6l.5-.5.3-.4q-.8 1.5-.4 3l2.8-2 .3-4 1-1.2q-.7 2.2-.7 4.5l2.1-1.5q1-2 1-4.2-.1-.7-.4-1.4l.6-.7q0 1 .3 1.9c.2 1-.2 2.5-.4 3.5q1.4-1 2.7-2a21 21 0 0 0 0-7.3l.5-.7c.3 2.4.7 4.8.2 7.3v.1l2.5-1.7.2-.3q.1-3.5-.3-7c0-.8-.3-2.2-.2-2.6l.4-1c.4 3.6 1 6.6.6 10.2h.1l2.7-1.8v-2.4c.2-2.7-.6-5.3-1.2-7.7q-.3-1.5-.4-3c.2-.6.3-.7.4-1.5q.3 3.1 1 6 1.2 3.7.8 8 1.6-1 2.8-2.3-.2-3.5-.7-6.8c-.4-2.5-.7-5.1-1.8-7.4a9 9 0 0 1-1.1-5.2l-.6-.1a20 20 0 0 1-5.4 6.2m18.7 2 .3 1.2q.4-.5.6-1.1zm-58.3 30.6.6-3.4c-1.3-5.6-2.8-11.4-7.5-15.4l.5 2-2.6-.7-.2-.8c-.5-1-1.1-2.5-2.5-2.3q.1.3.4.6.8 1 1.1 2.3h-.8q2.7 5.4 3.1 11.8l2.6 1.4q0-2.8-.6-5.6-.5-2.2-1.3-4.2l1 1q1.4 4.4 1.5 9.3l2 1.5v-.1q.4-3.4-.3-6.6l.8 1.1q.4 3.2.2 6.1zm68.6-18.3a8 8 0 0 0 3.2-3.8c-5.6-1.2-11.3-1-17.2-1.1l-2 2c5.4.5 11 1.5 16 2.9m-16.5-12q1 3.3 1.4 7h.1l1.9-2q-.2-2.7-.9-5.2zm-57.3-6 2 1.7h.2q.5-2 .2-4l-.1-.4-2.4.3a4 4 0 0 1 0 2.4m7.5 11c-4-.6-7.4 1-10.8 2.5l-.3.2 1.6.5c4.4-1.4 9.7-1.7 14-.3q-.8-1.5-1.8-2.6zM67.4 119c3-4.2 6.2-8.4 7.1-13.8l-3.2 1.3-.4 1.8c-1.6 4.2-4.5 7.9-7.2 11.4v3.4l.1.2zm13.9-32.8q-.2.4.2.6c1.6 1 3.6.6 5.5.8q3.6-1.6 7.3-3.5c3-1.4 6.7-1.4 10-1.6l-1.4-1.4q-3.4-.5-6.9.1c-3.8 1-7.6 2.2-11.6 2.6.6.3 1.7.9 2.2 1.5-1.7-.4-4-.5-5.3.9m46.6 8.2 3.5-1.4a97 97 0 0 1 7.8-4.2q.7-1.7.9-3.5-1.3.8-2.7 1.5-4.6 1.8-8.7 4.8zm-18.4-4.5c-4-1.4-8.8-1.3-12.9-.2l-.3.1q1.5.5 2.6 1.2c4.2-.8 8.7.2 12.3 1.6q-.4-1.3-1.1-2.4zm14.1 16c2.4-1.5 5.4-2 7.6-3.7q1-1.2 1.7-2.4c-2.7 1.4-5.7 1.8-8.3 3.6q-.3 1.3-1 2.5m-13.5-2.5 4 3.6-.2-2a53 53 0 0 0-5-4.6q-1.4-1.3-3.4-1.8l-.1.1c1.6 1.4 3.8 2.7 4.7 4.7M64 111l-.1 3.2q1.6-2 2.2-4.6-1.2.6-2.1 1.4m34.5-27.4c-3.7.4-7 3-10.2 4.3l4.6 1 5.3-2.3q4.5-1.5 8.9-.7l-2.1-2.6q-3.2-.1-6.5.3m31.9-4.5q0 .2.2.2l.2-3.6c-.9-1.8-3-1-4.5-1.3 1 1.8 3.2 2.8 4 4.7m51.9 49.4h.9zm-78.6-18.7-.5 2.5 1.8 2.2zm73.3-25.4q1-.4 1.8-1-2-2.3-4.7-3.5l-1.7 1.3q2.8 1 4.6 3.2m-13-5q-.2 0-.3.4 4 0 7.8 1 1-.4 2-1.2-2.3-1.2-4.8-2c-1.3 1.2-3 2.2-4.7 1.8m-53 63.9q-1.7.9-3 2.2-1 1.3-1.7 2.7-1.1.6-2.5 1 .3-1.5 1.1-2.6.7-1 1.4-2-.5.3-.9.2-1.6 2.1-2.5 4.7l-2.4.3q-.6.1-1 0 .8-2.7 2.9-5v-.1q-.3-.2-.7-.3a16 16 0 0 0-3.1 5.4l-1.5-.3q-.6-.1-.9-.6c.7-2.1 2.2-4 3.7-5.6q0-.3-.6-.7a25 25 0 0 0-3 3.8l-1 1.9q-.7-.8-1-2c.9-2 2.6-3.7 4.2-5.3q0-.5-.3-1a31 31 0 0 0-4.1 4.6V143c1-2 2.4-3.3 4.1-4.8q.1-.6 0-1.2-1.7 1.3-3.2 2.9.3-1.6 1.6-2.7c.9-1.2 2.6-1.8 2.7-3.4l-2.5 2.2h-.1q1.7-3 4-5.5l.7-.7q3.6-3 7.3-5.8c-.3-1.3-1.2-2.4-1.6-3.7h-.7c-1 0-1.6-.8-2.4-1.2v-.2q1.4.7 2.8.7-.2-.8-.5-1.3c-1.8 0-3.2.6-4.8-.5h4.4l.2-.2-.4-.7-.3-.5-1.3.2-1.9.3a6 6 0 0 1-2.6 0q-.5 0-.8-.3 3.2.1 6.1-.8l-1-1.7c-2.5.7-4.5 1.5-7.2 1.9l-1.5-.4s5.5-1.1 8.1-2q-.6-1-1.4-1.8l-8.3 3.5-1-.2q4.3-1.8 8.7-3.8-.9-1-1.9-1.8c-3.2 2-6.1 3.6-9.5 5.5h-1.3l.8-.5 7.2-3.9 2.3-1.4v-.2l-2.4-1.6c-3.3 3-6.7 5.3-10.4 7.8l-1.3.2c3.8-2.7 7.7-5 11-8.3-1-.8-2.2-1.1-3.3-1.7-3.2 4.4-6.8 7.3-11.1 10.8l-1.5.5h-.1c4.1-3.3 8.6-6.8 11.8-11 0-.3.4-.4.2-.6q-1.8-.8-3.8-1.1l-.8 1.6a102 102 0 0 1-9.4 11.3l-1.3 1.4-1.5.9 2-2.3q5.4-5.6 9.8-11.7.4-.7.6-1.4-1.5-.4-3-.4-.2.1-.3.5c-1.5 4-4.4 7.4-6.8 10.7l-1.9 2.3-3.2 4-2 1.7 4.5-5.7q4.6-5.5 8.2-11.5.5-1 .7-2a13 13 0 0 0-3.8.3c0 1.5-.7 2.8-1.2 4a76 76 0 0 1-5.7 9.2q-4.1 5.7-8.8 11.3l1.2 10.1c1 4.9 2.4 9.9 6.3 13.5 3.8 2.8 8 4.4 12.3 6 5.7.6 12 .8 17.6-.4 2.9-.8 5.7-1.6 8-3.7q.9 0 1.8-.4.6-.6.6-1.4 0-3.6-.3-7-.2-1-.6-1.8m21.5-68v-.1l-.8-.2-.1 1.3zm-62 9.6c3.3-3 8.8-3.6 13-1.6 3.3.1 6.3-.9 9.4-1.7a23 23 0 0 1 9.3-1.2l-2.1-2a23 23 0 0 0-9.7.8c-5.2 1.1-10.7 2-16 .4-4 2.6-6.2 7.2-7.6 11.8l2.4 1c-.6-2.5-.4-5.6 1.4-7.5m66.3-8q-1.5-.9-3.5-1.5-1.1 1-1.8 2.4l-.4 3.5 1.5-1.2c1.3-1.3 3.3-1.5 4.2-3.1m-14.3-3q1.1-.2 2.2-.6l-1.1-2h-3.1q.5 1.5 1.2 2.8zm-19.8 5.9 2.5 2.5.2-.1c2-3 2.7-6.7 3.1-10.3v-.1q-2.3.1-4.6.4.2 4.2-1.2 7.6m-37.2 29.2 3.2-1.9q-1.3-.6-2.7-.6h-1.7l-.3 3.2.1.3zm67.8-25.2q3.5-1.3 6.4-3.6-.4-1-1.2-1.8-.5-.7-1.2-1l-1.2 1.2q-2.8 1.5-5.2 3.7l-.7 3.8q1.5-1.3 3.1-2.3m48.7 25.6v.1q2.3-.3 4-1.5l-.2-4h-.2a15 15 0 0 0-3.6 5.4M147 126.6q.4-.3.2-.8-.4-.6-1.1-.7t-1 .5q-.1.4.2.9.8.6 1.7.1m-29.7 18.5q-.3-.6 0-1.1l-3.3-.5q-.4 0-.7.3c-.6 1.4-.2 3.3-.1 4.9.2 1.2.3 2.5 1.3 3.3.7.6 1.7.4 2.5.9q2.5-.5 5.4-.3l.1.2a2 2 0 0 0 1.9-.2c-.5-1.8-2-3.2-3.2-4.6-1.1-1.4-2.8-1.5-4-3m49-66.8q.8-.3 1.5-1-1.5-.6-3.1-1l-.7 2.3q1.1.3 2.3-.3m-52 38.8v-.2q-1.2-1.2-2.5-2v.3l-.7-.3c-.2 0-.7-.2-.7.2.5.9 1.8 1 1.8 2.2l2.1 1.2zm-2.8 1.4c.1.6.9.6 1.3.9q0 .3.3.6.4-.4.7-1l-1.3-.8c0 .7-.7-.2-1 .3m10.3-44.2q.1.5.5 1c1 2.3 3.6 3.2 5.1 5.3q1.3 1.6 2.2 3.5.5-1.8.6-3.8-.8-1.5-1.9-2.8-1.8-1.3-3.1-3.3zm-10.2 39q0 .4.2.7l2.5 2v-2q-1.2-1.3-2.6-2.4l-.1.3c-.5-.3-1-1-1.8-.9l-.1.4q.9 1 2 2m7 2v.2l4.2-4v-.2l-2.4 1zm16-42q.7-.7 1-1.6-2.2-.2-4.3-.2l.1 1.4q1.6.2 3.3.5M177 110v.2l4.1-.5a17 17 0 0 1 4.5-6.5 39 39 0 0 0-.8-5.6c-4 3.4-6.3 7.8-7.8 12.4M78 103.3q1.4-.1 2.6-.4.8 0 1.6-.2a30 30 0 0 0-5.4-4.8h-2v-1.4q-.7-.7-1.6-1c0 .6-.4 1.3-.3 1.9v.1a5 5 0 0 1-2.5-1.5c-.3-.6.3-1.4.3-2l-1-.5-.2.4-.3-.7q-1.3-.8-2.8-1.2a27 27 0 0 0-1.1 5 27 27 0 0 1 12.7 6.3m79.6-23 2.2-.3q-.6-2.9-1.7-5.3l-3-.6q0 .2.2.7 1 2.8 2.3 5.5m-35.3 28.2q2.9-1 5.4-2.2 1.2-1.3 2.1-2.6a57 57 0 0 0-6.7 3.2zm7.6 1.7-2.4 2 2.4-.2q1.6-1.2 3.4-2.2c7.7-4.7 16.2-7.5 24.6-10.4 4.2-1.7 8.6-3 12.4-5.6a81 81 0 0 0-15.8-2.8l-2.3 2-.1.2q6.4.8 12.6 3l-.3.1q-.3 0-.5.2c-4-1.6-8.4-2.2-12.6-2.7l-2.3 2 6.4 1.3q1.8.4 3.4 1.3l-.6.3a50 50 0 0 0-10-2.4l-3 2.2c1.4.1 2.8 0 4.2.5l4.1 1.2-.9.3q-1.6-.3-3.3-.9c-1.6-.7-3.4-.4-5-.5q-1.2.8-2.2 1.6l.8.1c2-.2 3.4 1.1 5.3 1.2l-.5.2-.6.2q-1-.2-1.8-.5c-1.3-.6-2.6-.5-4-.5q-1.4.7-2.4 1.8 1.7 0 3.2.4l1.6.2-1 .4c-1.4-.1-3-.7-4.7-.4q-1.4 1-2.5 2 1.4.5 2.7.5-.5.4-.9.5-1.6-.2-2.5-.5l-.9.7q-.4.2-.6.6c.4.2 1.6.2 2 .3l-.7.4q-1 0-1.9-.3-1.1.7-2.1 1.8.3.2.6 0l.6.1-.7.6q-.7 0-1.2-.3m-39.6-6.3c-.8-4.4-3.5-8.3-6.9-11.4h-.4q1 1.6 1.3 3.4-.7.4-1.3.7l4 6.5zm12-10.6c3 0 6.3 1 9 2.5l1.1.7q-.3-1.6-.9-3c-3.5-1.6-9-2.6-11.7-2q1 .5 2.5 1.8m77.6 1.5c-2 2.5-4 5.7-5.2 8.9-.3 2.3-1.4 4.4-2.3 6.5h3.7l.5-1.2c1.6-4.6 4-9 8-12.3q-.5-2.7-1.4-5.3-2 1.5-3.3 3.4m-68.6 11.7c.1 1.8 1.7 2.4 2.8 3.8V108l-2.8-2.6c-1.1-1.2-2.3-2.6-4-2.9v.1q2.5 1.4 4 4m-.6-8.2q1.2 1 2.5 1.9l-.5-2.6q-4-3.2-9.5-3.6l2 2q3 .5 5.5 2.3M107.3 85l.7-.5c2.2-2.5 3.3-5.7 4.3-8.7l1-4.3q-2.2 0-4.2.3c-.6 3.8-1.2 7.8-3.6 11zm34.5-6.4q1.2-.8 2.3-2c1-1 2.2-2.2 2.8-3.7l-6-.7q-1 1.5-2 3.2 1.6 1.5 3 3.2M70 92.8q.5.4 1.2.6.5-1 1.5-1.6l-.4-.6q-1.7.2-2.3 1.6m39.7-4.6a28 28 0 0 0 8-17q-2 0-3.8.2c-1.1 5.2-2.3 10-6.2 14zm18.6-15.4-.8-1.5h-2.8q-.2-.2-.4 0 .3 1 1 1.9zM94 105.3c-.3-4-1.1-8-3.2-11.4H90q-.6-1.6-2-2.6l-.8.4a5 5 0 0 1 1.7 2.5q-1.1.3-2.1.8 3.3 4.1 4.2 9.1zm31.1-3c2.8-1.3 5.9-2.1 8.6-3.6q1.4-1.9 2.4-3.7v-.1c-3.2 2-7 2.6-10 5zm5.6-29.5-.1-1.4-2.4-.1v.1l.9 1.4zm23.8 8q1.1 0 2.2-.3.3 0 .3-.3-1.5-3-2.5-6.2l-2.2-.4q0 2 .4 3.8c.3 1.3 1.2 2.3 1.8 3.5M74.9 95.7q.1-1.3.7-2.6l-1-.2q-.7 1-1 2zM95.5 75l-2.1-1.5q-4.7.8-9.3 2.1 6 .8 11.4-.6m1.4-1.4-.3-.6-2 .3 2.2 1.6q.3-.6 0-1.3m15.3 81.1c-.7 1.3 0 3 .5 4.1h.1c1-1.3 1-3.3 0-4.6q-.2.1-.6.5M112 111l2.5 2.1-.1-1.7-2-2.2a5 5 0 0 0-2.7-2c-.3-.1-.9-.2-1 0q1.5 1.3 3.4 2.4-.1.8 0 1.4m14.6 42.1q.6 2.4 2.5 4 .5.1.8-.1v-1a7 7 0 0 0-3.3-2.9m-12 .7zc2 1.2 4.4 2.2 6.1 4q.3-.3.2-.8 0-.8-.4-1.3c-1.7-1.5-3.8-1.7-5.9-2M73.1 105c-2.3-2-5.5-2.5-8.5-2.6q-.3 1.8-.3 3.5c1.8 0 3.5 0 5 .9zm39.7-10.3c2.4-2.4 4-5.6 5.7-8.5l.3-.6v1.3a42 42 0 0 1-5.8 8.5l.6 2.3 4.3-6 .9-1.8V91l-2.2 3.6-2.8 3.9.5 2.9q2.4-2.7 3.9-5.8l.4-1v-.2c.1.3 0-.1 0 .2V96q-1.6 3.3-4.2 6.2l.3 2.6a18 18 0 0 0 3.8-6.1l-.1 1.8q-1.6 2.8-3.6 5.2l.1 2.5c.8-1.3 2-1.9 2.5-3.3l.8-2-.1 2c-.6 1.6-2.5 2.8-3 4.5v1.7c1.3-1 2.5-3 2.9-4.7l-.1 1.2-.2 1c-.3 1.7-2 2.3-2.6 3.8v1.2h.1c.5-1 1.9-1.6 2.3-2.6l-.1 1-1.4 1.5c-1 1.2-.8 2.8-.8 4.4q.9-.5 1.7-1.1l2-3.4-.4-1.6.2-.7.1-.3q.2 1 .6 1.7l1-2-1-2.2q.2-.5.3-1 .5 1.4 1.1 2.5l1-2q-.5-2-1.5-3.8l.1-.9a14 14 0 0 1 1.9 3.7l1-2.1q-.7-2.3-1.7-4.5-.5-1-.8-1.5v-1.3q1.8 3 2.8 6.4.8-1.5 1.2-2.9-1.5-3.2-3.4-6.3l-.7-1v-1.1l1.4 2 3 5.6 1-2.7.2-.7-1.4-2.1q-1.5-2.3-3.2-4.4-.9-.9-1.3-1.2v-.9q3.1 3 5.2 6.5l1 1.3.5-1.3.3-1.5a51 51 0 0 0-7.5-9v-.5l-.1-.3c3.2 2.4 5.4 6 8 9l.7-3.2q-1.5-2.7-3.7-5-3-2.4-5.7-5L119 78q2.3 2.4 5 4.5c2.1 1.4 3.5 3.8 4.9 5.8l.6-2.8q-1-3.5-3.7-6a14 14 0 0 1-4.6-5.1h-.5l.4-.2q-.8-1.5-1.3-3h-1.4a29 29 0 0 1-8.2 17.6l1.4 2.4c3.3-2.9 5.8-7.2 7.2-11.2q0 .8 0 1.6a27 27 0 0 1-5.8 9.1q-.6.6-1.1 1.1zM88.1 79c3.4-1 7.2-1.8 10.9-1.3-.8-1-1.8-1.4-2.7-2.2-4.3.9-9.1 1.6-13.6.5q-4 1.1-7.5 3l.2.2c3.8 1 8.7.5 12.7-.2m81.7 19.2c-2.1 3-4.3 6.4-5.1 10 0 .4-.3 1.1 0 1.4q1.5.3 3.1.3 0-.7.2-1.5c1-3.8 3-7 5.1-10.3l1.8-2.7 1.1-.7-.1.3-2.1 3a50 50 0 0 0-4.8 9c-.2 1-.7 2-.5 3q1.6.3 3.3.2 1.1-2 1.8-4.2a19 19 0 0 1 2.5-6.4l1-1.5q2.3-4.3 6-7.3-1.2-4-4-7-.9.5-1.9 1l.7 1.2c1 2 0 4-1.2 5.5a29 29 0 0 1-10.3 6.6q-6 2.4-12.2 4.3c-6.4 2.4-13 4.8-19 8.1l-.2.2q-1.2.6-2.3 1.5v.1c1 .4 2-1.4 2.5-1.6q.3-.4 1.4-.6c-.8.5-1.8 1.6-2.3 2.3h1.9l.4-1.2q.6-.9 1.4-1.5.6-.3 1.3-.4c-.9.7-2.2 1.8-2.4 3l2.4-.5a9 9 0 0 1 2-3.1l1.2-.4-.4.4a8 8 0 0 0-2.1 3q1.8-.4 3.4-1l.5-1.3c.3-.4.5-1.3 1-1.8l.9-.3c-.5.7-1.2 2-1.5 2.9l-.1.3 3.2-.6.8-1.8q.5-1.2 1.2-2l1-.3q-.7.6-1 1.5-.8 1.2-1.3 2.5c1.1-.2 2 0 3-.4.4-1.7 1.6-3.3 2.5-4.8q.5 0 .8-.3l-2 3.5q-.4.7-.6 1.6l3.6-.2q.3-2.1 1.3-3.9c.3-.3.9-1.7 1.5-2.4q.6 0 1-.3l-.1.2c-1.3 1.9-2.9 4-3 6.4h3.6v-.8q1.3-4.2 4-7.6.4-.3.9-.4c-1.5 2.3-3.3 4.7-4.1 7.5q-.3.8-.1 1.4l3.6.2q0-1.5.5-3 1.7-4.4 4.5-8.1l.7-.3v.2M138.2 75l2-2.8-3.8-.3q-.3.9-1 1.8 1.6.5 2.8 1.3M198.2 91.8c.5 1.6.5 3.7-.7 4.9l-.8.5-.6-2.7q.8-.7.5-1.7 0-.7-.5-1-.3 0-.7.1-.5.7-.4 1.8c0 1.4 0 3.2-1.2 4.3q-1.1.8-2.4.2c-1.7-1-2.1-2.9-2.4-4.6q0-2.6 1.8-3.8h.2l.6 2.7q-.8.5-.7 1.7.1.8.8 1.4h.6q.6-.8.5-1.9c.1-1.6 0-3.5 1.4-4.4q1-.4 2-.1 1.6.9 2 2.6M58.4 107.5c1.4 1.7 1.2 4.7.2 6.5-1 1.5-3 2.2-4.8 2-1.3-.2-2.7-.9-3.3-2.3-1-1.8-.7-4.3.4-6 1-1.4 3-2.1 4.7-1.8q1.6.3 2.8 1.6m-1.4 2.1c.5.6.5 1.7.2 2.3-.7 1.2-2.3 1.3-3.6 1q-1.1-.2-1.6-1.1-.4-1.1.2-2 1.2-1.3 3.2-.9 1 .2 1.6.7M59.1 120l-8.9.3-.1-3 8.9-.3zM199 128.7l-.3 2.9-8.8-.8.3-2.9zM197.6 134c1.2 1.7.5 4.4-.4 6q-1.2 2-3.4 1.9l.5-2.6q.6-.2 1.2-.5 1-1 .7-2.3c-.8-1.4-2.5-1.6-4-1.5q-1.3.5-1.5 1.7-.2.7.1 1.3l1 .9-.5 2.6q-.6 0-1.2-.5c-1.2-.8-1.6-2.5-1.4-4 .3-2 1.4-4 3.2-4.6 2-.7 4.3-.2 5.7 1.6M81 161.5q0 .8-.3 1.3-2-.5-4.3-1.2l-11-3q1.3-.9 3-.4zM74.2 161.7l6.2 1.7-.5 1.6-1.3-.4-14.4-4.8.5-.7.9.3zM182.9 159.8l-15.3 3.8-.3-1.3 13.4-3q1.2-.1 2.2.5M184 160.8l.2.2-9.8 3-6.2 1.7-.4-1.5q8-1.9 15.8-3.9zM79.7 165.6l-.5 1.5-15.6-6 .2-.7zM184.8 162.3l-4.2 1.5q-5.8 2.2-11.8 4l-.4-1.4 16.2-4.8zM79 167.8l-.4 1.4q-7.5-3.1-15-6.4v-.9l4.2 1.6zM84.5 162.5l-3.1 10.2-2-1 .1-.2 3.2-9.5zM168.4 172.7l-2 1-2.6-10.6 1.8-.5.1.3zM97.2 165.6l-.9 2.6-4.6-3.7q-3 .1-6.2.4l.7-2zM184.8 163.9l-15.4 6.2-.4-1.5 6-2.1 9-3.1.8-.3zM162.7 165.4q-3-.1-6.2-.5l-.1.1-4.6 3.5v-.3l-.7-2.2 9.9-2.3q.5 0 1.1-.3zM70.6 166.6l7.7 3.4-.3 1-12.9-6-1-1.2q3.3 1.3 6.5 2.8M184.4 164.8c-.8 2-3 2.3-4.8 3.1l-9.6 4.2-.4-1.4 5.5-2.2 9.2-3.6z"/>
    <path d="m96 169.2-.4 1-.2.8-4.6-3.7h-6q0-.6.4-1.4l6.3-.4zM163.4 168l-6-.2-4.8 3.5-.5-1.7q2.3-1.9 4.7-3.6 3 .1 6.1.5zM99.3 171.3l-2.8 8.4-2-.9.1-.2 4.3-12.6 2 .5zM153 179.2l.1.2-2 .8-1.5-5.6-2.2-7.8 2-.5zM122.2 171.3c2.5.5 5-.4 7.5-.8l7.4-1.5 8.6-1.9.1.2 3.8 13.5-5.6 2.5-11 4.7c-3.8 1.8-8 4-12.6 2.6-3.6-1-6.9-2.8-10.2-4.4l-8-3.8q-2.2-.8-4.2-2l4.5-13.5c6.6 1.4 13 3.2 19.7 4.4m-14 .3 1.9 6 1.6-5.2 3.4.9q-1.6 5-3.3 9.8l-3.5-1.3-1.8-6-1.5 4.6-3.2-1.3 2.8-8.4zm35.6 8.7-3.4 1.4-2.5-5 .3 5.8q-1.5.6-3.3 1.1-2.5-4.5-5.1-9.4l3.2-.8 2.7 5.7-.3-6.2 2.8-.7 2.8 5.6-.4-6.1 3.2-.8zm-12.6-1q.3.5 0 1.1t-1 .6q-.4 0-1-.3-.3-.3-.3-.8 0-.8.6-1.1 1-.5 1.7.4m-3.9-2.6q.4.7.4 1.5h-3.1q-.3-.7-1-.9-.7 0-1.3.2-.5.3-.2.7c1.4 1 3.3.8 4.7 1.8q1.4 1 1.2 2.9c-.1 1.3-1.5 2.4-2.7 2.7-2.2.5-4.9.4-6.4-1.6q-.5-.8-.5-1.6h3.3q.2.7 1 1 1.2.3 2-.4l-.1-.6c-1-.8-2.3-.8-3.5-1.2q-1.7-.5-2.3-2-.3-1.6.4-2.7c1.5-1.8 4.1-2 6.3-1.3q1.1.5 1.8 1.5m-10.1 2.2q.4.4.4 1t-.6 1q-.7.3-1.4-.1-.5-.5-.5-1 0-.8.7-1.1t1.4.2"/>
    <path d="m95 172-.5 1.8h-.1l-4.5-3.7-5.9-.2.4-1.5q3-.1 6-.1zM163.6 169l.4 1.5h-6l-.2.3-4.3 3.3-.6-1.7 4.7-3.7z"/>
    <path d="m94.1 174.8-.6 1.8-.2-.2L89 173h-.3l-5.5-.6.4-1.5 6 .2zM164.6 173h-.3l-5.5.5-4.6 3.5-.5-1.9 4.7-3.5h5.9z"/>
    <path d="m88.7 174 4.5 3.6-.2.6-1.8-1-8.1-3.7v-.1zM165 174.3q-5.2 2.2-10.3 4.3l-.2-.6 4.7-3.6 5.7-.4zM60.6 96l-.3 2.7q-2.8 1.7-5.8 3.3h.1l5.2.5-.3 2.7q-4.5-.3-9-1l.4-2.7q3.1-1.7 5.8-3.3h-.3l-5-.4.4-2.8zM61.7 143l-4.1 4.9-.1.1 5.2-1.5.7 2.7-8.7 2.3-.7-2.8 4.1-4.9-5 1.4-.8-2.7 8.7-2.3zM59.8 131.8q-.5.4-1 .6l.3 3.4 1.2.3.3 2.8q-4.6-1-9.3-2.3l-.3-3 8.6-4.7zm-2.7 1.3.3 2.4-4-.8s2.6-1 3.7-1.6M52.4 124.3s4.5-.3 6.9-.3l.2 2.9-6.9.4.1 2.9-2 .1-.5-8.7 2-.2zM63.5 85.3q-.3 1.5-.8 2.8l-1.2.1-1 3.4 1 .6-.8 2.8-7.6-5.7 1-3zm-3.8 3q-.4 1-.6 2.3l-3.3-2.1zM64 84.1l-7.9-4 1.5-2.6 6.2 3.2q1.2-2 2.3-4l1.6.9zM75.7 65.7c.4.8.6 2 .2 2.7-.8 1.6-2.5 2.2-4 3.1l1.3 2.4-2.6 1.5-4-7.7c2.2-1.2 4.2-2.8 6.7-3.2q1.6 0 2.4 1.2M73.1 67q.4.7.2 1.3c-.5.9-1.4 1-2.1 1.5l-1-2c.8-.5 1.8-1.3 2.9-.8M87 69.5l-2.8.8-.7-1-3.5 1v1.2l-2.8.7.8-9.3 3-.8zM82.4 68l-2.3.6v-3.9zM95.4 60.7q.6 1.3 0 2.5l-1.2.8c.8.2 1.8.3 2 1.2.3.7.3 1.8.9 2.6l-2.9.5c-.6-1-.1-2.5-1.5-2.9q-1.2 0-2.3.3l.5 3-2.9.6-1.6-8.6 6-1c1.2 0 2.4 0 3 1M92.7 62q.5.5.3 1.1c-.5.8-1.9.9-2.9 1q0-1-.4-2c1-.2 2.2-.7 3 0M115.6 58.9q.4.4.5 1h-2.8q-.6-.6-1.4-.5-.8-.1-1.3.5 0 .6.5.8c1.7.5 3.7.4 5.1 1.5q.8 1 .6 2.2c-.4 1.4-1.7 2-3 2.3a6 6 0 0 1-5-.8q-.7-.6-.8-1.4l2.7-.3q.5.6 1.1.8 1.2.2 2-.4.4-.5 0-.8-.6-.5-1.4-.6c-1.6-.3-3.3-.2-4.3-1.6q-.5-.9-.3-1.8c.6-1.6 2.3-2 3.7-2.2 1.6-.1 3.2 0 4.1 1.3M106.6 58l-3 3.6 4.5 5.1-3.5.4-3-3.4-.8 1 .3 2.7-3 .3-1-8.7 3-.3.3 3.2 2.8-3.5zM126.1 58.8q.4 1.1 0 2.2l-1.1 1q.3.6 1 1l.6-.8h1.9c-.3.6-.5 1-1.3 2l1.7 2h-2.4l-.8-.8c-1.1.8-2.7 1.4-4 1q-1.2-.2-1.7-1.2-.6-1.3.2-2.7.6-.7 1.3-1.1-1-1.2-.7-2.6c.3-1 1.5-1.2 2.4-1.3q2-.2 3 1.3m-1.7.3q.3.4.1 1c-.2.2-.7.7-1.1.6q-.8-.4-.8-1.2 0-.4.4-.6.8-.3 1.4.2m0 5.1q-.7.6-1.7.7-.5 0-.7-.6-.2-.4 0-.9.4-.6 1-.7zM134.9 57.8c.2 1.9.6 4.4 1 6.3l1.6-6h2.5l1 6.3 1.7-6 2.9.2-3 8.6-3-.2-1-6-1.6 5.8-3-.3-2-9zM145.6 67.5l3 .3 1-8.7-3-.3zM153.7 59.7l-.8 7 4.5.6q0 .8-.2 1.7l-7.5-1 1.1-8.7zM168.5 65.8c.1 1.9-.6 3.9-2.4 4.6-2 1-7.7-1-7.7-1L160 61c3 .8 8.3.9 8.4 4.9m-3-.7c.3.6 0 2.7-1.3 3.4q-1.3.3-2.5-.1l1-5c1.2.1 2.5.4 2.9 1.7M173.2 64.4l-2 6.5 3.6 1.4-.6 1.6-6.4-2 2.6-8.5zM181.5 67.8l-3.7 8-2.7-1.4c1.2-2.5 2.4-5.4 3.7-7.9q1.5.6 2.7 1.3M189.8 73.7l-1.4 1c-1.1-.6-2.3-1.7-3.2-2.4l-1.2 1.5 2.5 2.2-1.4 1-2.2-1.6q-1 1.2-2 2.5l-2.3-2 5.3-7zM195 81.6l-1.6 1-2.6-4-1.3.8 2 3.5-1.4 1-2.2-3.4-1.5.9 2.5 4.3-1.4 1q-2.1-3.3-4.1-6.8l7.4-4.9zM199.6 106.4l-1.8.2-.3-4.8-1.6.1.2 4-1.7.2-.3-4-1.8.1.3 5-1.8.2-.5-8 8.9-.8zM199 116.2q-.9 1.2-2.4.8c-.9-.1-1.5-1-1.6-1.8-.3.7-.7 2-1.8 2H191l-.2.2v-2.9c1-.3 2.5.2 3-.9.3-.7.2-2.4.2-2.4h-3.2v-2.9l8.8-.2c0 4.2.5 5.9-.6 8.1m-1.2-5c0 1 .2 2.4-.6 3q-.4.2-1 0-.5-.5-.5-1.2v-1.8zM199.5 120.6l-6.4 2 6.4 2-.1 2.9-8.8-3.4v-3l9-3.4zM193.4 146.8l-1.5-.5-1.5 3.7-1.7-.6 1.4-3.7-1.7-.6-1.8 4.7-1.7-.5 1-2.7 2-4.9 8.3 2.8-2.9 7.5-1.6-.6zM169.8 98.2q0-.3 0-.1zM169.7 98v.3q.2-.2 0-.2"/>
  </g>
</svg>
