<?xml version="1.0" encoding="UTF-8" standalone="no"?><!DOCTYPE svg PUBLIC "-//W3C//DTD SVG 1.1//EN" "http://www.w3.org/Graphics/SVG/1.1/DTD/svg11.dtd"><svg width="100%" height="100%" viewBox="0 0 250 250" version="1.1" xmlns="http://www.w3.org/2000/svg" xmlns:xlink="http://www.w3.org/1999/xlink" xml:space="preserve" xmlns:serif="http://www.serif.com/" style="fill-rule:evenodd;clip-rule:evenodd;stroke-linejoin:round;stroke-miterlimit:2;"><g><path d="M29.64,135.889l0.001,-0.051l-0.001,-0.047c-0,-0.06 -0.001,-0.12 -0.001,-0.181c-0,-4.92 1.759,-9.687 4.951,-13.425l1.062,-1.244c-0.425,-6.43 1.303,-13.837 1.997,-18.967c0.118,-0.874 -0.45,-1.608 -1.258,-1.962l-12.039,-5.541c-1.058,-0.326 -2.106,0.382 -2.317,1.47c-6.16,31.65 2.737,46.611 12.356,53.73c-3.014,-3.744 -4.752,-8.519 -4.752,-13.617c-0,-0.055 0.001,-0.11 0.001,-0.165" style="fill:#fff;fill-rule:nonzero;"/><path d="M80.045,119.767c0.185,-4.824 -0.433,-11.574 -1.303,-17.057c-0.139,-0.795 -0.963,-1.272 -1.717,-0.986l-6.502,2.988c-0.547,0.272 -0.891,0.764 -0.821,1.35c0.698,7.064 1.108,16.616 -1.237,24.055c-2.294,8.578 -10.359,17.212 -19.541,13.658c0.022,0.009 -0.064,-0.026 -0.043,-0.016c-4.721,-2.04 -5.906,-8.311 -3.791,-12.647c2.188,-4.742 7.488,-7.01 11.726,-5.151c5.405,2.13 6.479,10.013 2.525,14.877c4.153,-2.889 6.717,-7.863 7.933,-12.933c-1.751,-5.837 -7.434,-11.474 -15.945,-11.474c-4.955,-0 -10.456,2.118 -13.836,5.226l-0,0.004c-0.653,0.599 -1.029,0.967 -1.593,1.653l0,0.006c-2.823,3.309 -4.528,7.6 -4.528,12.29c0,0.077 0.001,0.152 0.003,0.228c-0.002,0.073 -0.003,0.144 -0.003,0.216c0,8.186 4.858,15.201 11.762,18.14c4.412,1.765 9.468,1.722 13.91,0.73c9.529,-2.397 22.412,-10.58 23.001,-35.157" style="fill:#fff;fill-rule:nonzero;"/><path d="M99.683,141.998c-6.231,0 -10.007,-3.867 -10.007,-10.28l0,-14.328l5.641,-0l-0,14.146c-0,3.366 1.592,5.185 4.366,5.185c2.82,0 4.367,-1.819 4.367,-5.185l-0,-14.146l5.64,-0l0,14.328c0,6.413 -3.73,10.28 -10.007,10.28" style="fill:#fff;fill-rule:nonzero;"/><path d="M122.107,117.123c3.411,-0 5.912,1.364 7.277,3.502c1.364,-2.138 3.865,-3.502 7.323,-3.502c5.73,-0 9.234,3.821 9.234,10.279l-0,14.328l-5.641,-0l0,-14.464c0,-3.048 -1.456,-4.867 -3.957,-4.867c-2.592,-0 -4.093,1.819 -4.093,5.048l-0,14.283l-5.641,-0l0,-14.283c0,-3.229 -1.547,-5.048 -4.093,-5.048c-2.547,-0 -3.957,1.819 -3.957,4.867l0,14.464l-5.641,-0l0,-14.328c0,-6.458 3.457,-10.279 9.189,-10.279" style="fill:#fff;fill-rule:nonzero;"/><path d="M202.978,126.707c-0.683,-3.367 -3.093,-5.095 -6.277,-5.095c-3.366,0 -5.912,2.092 -6.732,5.095l13.009,-0Zm-18.467,2.864c-0,-7.367 5.277,-12.598 12.236,-12.598c6.368,-0 12.098,4.321 11.552,13.782l-18.511,-0c0.454,3.821 3.319,6.459 7.414,6.459c3.001,-0 5.548,-1.41 7.323,-4.003l3.73,2.956c-2.367,3.412 -6.095,5.913 -11.19,5.913c-7.505,0 -12.554,-5.276 -12.554,-12.509" style="fill:#fff;fill-rule:nonzero;"/><path d="M211.224,111.252l5.639,-2.589l0,33.067l-5.639,-0" style="fill:#fff;fill-rule:nonzero;"/><path d="M172.902,141.998c-3.412,0 -5.913,-1.364 -7.277,-3.503c-1.365,2.139 -3.867,3.503 -7.323,3.503c-5.732,0 -9.234,-3.821 -9.234,-10.28l0,-14.328l5.641,-0l-0,14.465c-0,3.047 1.454,4.866 3.956,4.866c2.593,0 4.094,-1.819 4.094,-5.049l-0,-14.282l5.64,-0l0,14.282c0,3.23 1.546,5.049 4.094,5.049c2.547,0 3.957,-1.819 3.957,-4.866l-0,-14.465l5.64,-0l0,14.328c0,6.459 -3.457,10.28 -9.188,10.28" style="fill:#fff;fill-rule:nonzero;"/><path d="M219.994,111.252l-0,20.424c-0,6.414 3.774,10.279 10.006,10.279l0,-5.275c-2.775,-0 -4.367,-1.82 -4.367,-5.186l-0,-8.804l0.01,-0.206l4.357,0l0,-5.094l-4.357,-0l-0.01,-8.723" style="fill:#fff;fill-rule:nonzero;"/></g></svg>