<svg xmlns="http://www.w3.org/2000/svg" xml:space="preserve" fill-rule="evenodd" stroke-linejoin="round" stroke-miterlimit="2" clip-rule="evenodd" viewBox="0 0 250 250">
  <path fill="#fff" d="M210.8 125a85.8 85.8 0 1 1-171.6 0 85.8 85.8 0 0 1 171.6 0m-79-53c-2.4 0-4.3 2-4.3 4.3v36.4a4.3 4.3 0 0 0 8.5 0V76.3c0-2.3-1.9-4.2-4.2-4.2M119 170h5.8v-26.6H119zm-16.2.3c5.7 0 9.7-3 9.7-8.2 0-4.7-3-6.6-8.4-8-4.5-1.2-5.7-1.8-5.7-3.5q0-2.2 3.4-2.4 3.4.1 7 2.6l3-4.4q-4-3.3-9.9-3.4c-5.4 0-9.3 3.2-9.3 8v.1c0 5.3 3.5 6.8 8.8 8.1 4.4 1.2 5.4 2 5.4 3.4q-.1 2.5-3.9 2.6-4.4-.2-7.9-3.2l-3.4 4c3.1 3 7.2 4.3 11.2 4.3m45.6-.3h6.8l-6.4-9.5c3.3-1.3 5.6-4 5.6-8.2v-.1c0-5.5-3.7-8.8-10-8.8h-12V170h5.7v-8.5h4.6zm.1-17.5q-.1 3.6-4.4 3.8h-6v-7.6h5.8q4.5 0 4.6 3.8m24.1 17.9c8.2 0 14.1-6.2 14.1-13.7 0-7.6-5.8-13.7-14-13.7s-14.2 6.1-14.2 13.7 6 13.7 14.1 13.7m8-13.7c0 4.6-3.2 8.3-8 8.3a8 8 0 0 1-8-8.3c0-4.6 3.3-8.4 8-8.4a8 8 0 0 1 8 8.4M77 170.3c5 0 8.1-1.8 10.8-4.7l-3.7-3.8c-2 2-3.9 3.1-7 3.1-4.5 0-7.6-3.8-7.6-8.3s3.2-8.4 7.7-8.4q3.8.2 6.7 3l3.8-4.2a14 14 0 0 0-10.5-4.1c-8.2 0-13.8 6.1-13.8 13.7 0 7.7 5.8 13.7 13.6 13.7m83.4-90c-2.4 0-4.3 1.9-4.3 4.2v24.2a4.3 4.3 0 0 0 8.5 0V84.5c0-2.3-1.9-4.3-4.2-4.3m-9.7 49.5a4.6 4.6 0 1 0-9.2 0 4.6 4.6 0 0 0 9.2 0M89 80.2c-2.3 0-4.2 2-4.2 4.3v24.2a4.3 4.3 0 0 0 8.5 0V84.5c0-2.3-2-4.3-4.3-4.3M103.3 68a4.3 4.3 0 0 0-4.3 4.2v32.4a4.3 4.3 0 0 0 8.5 0V72.2c0-2.3-1.9-4.2-4.2-4.2m14.2-8.2a4.3 4.3 0 0 0-4.2 4.3v36.4a4.3 4.3 0 0 0 8.5 0V64c0-2.4-2-4.3-4.3-4.3m28.5 0a4.3 4.3 0 0 0-4.2 4.3v52.7a4.3 4.3 0 0 0 8.5 0V64.1c0-2.4-2-4.3-4.3-4.3"/>
</svg>
