<svg xmlns="http://www.w3.org/2000/svg" xml:space="preserve" fill-rule="evenodd" stroke-linejoin="round" stroke-miterlimit="2" clip-rule="evenodd" viewBox="0 0 250 250">
  <g fill="#fff" fill-rule="nonzero">
    <path d="M49.5 118.1c-7.7-11-14-26.1-16.4-39.3a36 36 0 0 0 16.4 39.3m22.3-40a36 36 0 0 0-16.3 39.4c2.3-13.2 8.7-28.4 16.3-39.3m-26 44.7a107 107 0 0 1-39.6-16.3 36 36 0 0 0 39.5 16.3M6.8 105c13.2 2.4 28.5 8.7 39.5 16.3A36 36 0 0 0 7 105m93.5 1.7c-11 7.6-26.3 13.9-39.5 16.2a36 36 0 0 0 39.5-16.2M6.3 143.5c11-7.7 26.2-14 39.4-16.3a36 36 0 0 0-39.4 16.3m53.9-22.3c11-7.6 26.3-14 39.5-16.3a36 36 0 0 0-39.5 16.3m13.3-42.4A106 106 0 0 1 57 118.1a36 36 0 0 0 16.4-39.3m-12.6 48.4c13.2 2.3 28.5 8.6 39.5 16.3a36 36 0 0 0-39.5-16.3m-3.8 4.7c7.7 11 14 26.1 16.4 39.3A36 36 0 0 0 57 131.9m14.7 40c-7.6-11-14-26.2-16.3-39.4a36 36 0 0 0 16.3 39.3M99.7 145a107 107 0 0 1-39.5-16.3A36 36 0 0 0 99.7 145m-65 26.7a36 36 0 0 0 16.4-39.3 106 106 0 0 1-16.3 39.3m0-93.6c7.8 11 14 26.1 16.4 39.3a36 36 0 0 0-16.3-39.3m-1.6 93c2.4-13.2 8.7-28.4 16.4-39.3a36 36 0 0 0-16.4 39.3m13.3-42.4c-11 7.6-26.3 14-39.5 16.3a36 36 0 0 0 39.5-16.3M131 103c1.4.3 2.8 1.2 2.8 3.8q0 4.2-5.4 4.1h-7.2V95.8h6.6a7 7 0 0 1 4 1q1.4 1 1.4 2.9c0 1.8-1 2.7-2.2 3.2m-6.4-1.1h3q1.2 0 1.6-.4t.5-1.3q0-.8-.5-1.4-.5-.4-1.5-.4h-3zm5.6 4.5q0-1-.6-1.4-.5-.5-1.7-.5h-3.3v3.8h3.3q1.2 0 1.7-.5t.6-1.4M139.2 110.3q-1.6-1-2.7-2.7-.9-1.8-.9-4.3 0-2.4 1-4.1a7 7 0 0 1 2.6-2.8q1.8-1 4.2-1t4 1q2 1 2.8 2.8 1 1.7 1 4.1 0 2.5-1 4.3a7 7 0 0 1-2.7 2.7q-1.8 1-4.1 1-2.4 0-4.2-1m1.2-3.4q1 1.2 3 1.3 1.8 0 3-1.3 1-1.3 1-3.6 0-2.1-1-3.5a4 4 0 0 0-3-1.2q-2 0-3 1.2-1 1.4-1.1 3.5 0 2.3 1 3.6M152.1 98.6v-2.8h13.5v2.8h-5v12.3h-3.5V98.6zM180.3 111h-3.6l-1-3.7h-6.5l-1 3.6h-3.5l5.3-15.1h5zm-5.6-6.4-2.3-6.4-2.2 6.4zM195.5 95.8v15.1H191l-5.6-11.1v11.1H182V95.8h4.7l5.5 11v-11zM198.3 95.8h3.5v15.1h-3.5zM207.7 110.3q-1.7-1-2.7-2.8a9 9 0 0 1-1-4.2q0-2.4 1-4.1a7 7 0 0 1 2.7-2.8 8 8 0 0 1 4-1q3 0 5 1.7 1.9 1.6 2.1 4.5h-3.7q-.3-1.5-1-2.2-1-.8-2.4-.8-1.8 0-2.9 1.3t-1 3.4q0 2.3 1 3.6 1 1.2 2.9 1.3 1.4 0 2.3-.8 1-.8 1-2.3h3.8q-.2 3-2.1 4.5a7 7 0 0 1-5 1.7 8 8 0 0 1-4-1M124.3 132q-1.5-1-2.5-2.8a10 10 0 0 1-.8-4.2q0-2.4 1-4.2a7 7 0 0 1 2.6-2.8q1.8-1 4.2-1 3 0 5 1.6 2 1.5 2.2 4h-3.7q-.2-1-1.1-1.8a4 4 0 0 0-2.4-.6q-2 0-3 1.3-1 1.2-1.1 3.5 0 2.3 1 3.5 1.2 1.3 3 1.3 1.4 0 2.3-.7t1.2-2h-3.4v-2.6h7.4v8h-2.8v-3q-.6 1.6-2 2.5-1.4 1-3.2 1-2.2 0-3.9-1M153.5 132.6H150l-1.2-3.6h-6.3l-1.2 3.6H138l5.3-15.2h5zm-5.6-6.4-2.3-6.3-2.2 6.3zM163.2 117.4q2.3 0 3.5 1 1 1 1 3 0 1.5-.7 2.3a3 3 0 0 1-2.2.9c1 0 3.4 0 3.4 3.5v4.5h-3.6v-4.2q0-1.8-1.6-1.8h-4.3v6h-3.4v-15.2zM162 124q2.4 0 2.4-2 0-.8-.6-1.4-.5-.4-1.8-.4h-3.3v3.8zM170.9 117.4h5.8q2.4 0 4.3 1 1.8.8 2.8 2.5a8 8 0 0 1 1 4.1 8 8 0 0 1-1 4.1q-1 1.7-2.8 2.6t-4.3.9H171zm5.8 12.4q2 0 3.2-1.2t1.3-3.6-1.3-3.6q-1.2-1.2-3.2-1.2h-2.4v9.6zM198.6 117.4v2.8h-8.1v3.3h7.1v2.7h-7.1v3.6h8.2v2.8H187v-15.2zM214.7 117.4v15.2h-4.6l-5.5-11.2v11.2h-3.4v-15.2h4.7l5.5 11v-11zM218.9 131.6a5 5 0 0 1-2-4h3.9q0 1.2.8 1.8a3 3 0 0 0 2 .6q1.2 0 1.7-.4t.6-1.2q0-.6-.3-1t-1.2-.7-2.5-.8a7 7 0 0 1-3.3-1.5q-1.2-1-1.1-2.6 0-1.5.7-2.5.8-1 2-1.7 1.5-.5 3.2-.5t3.1.6q1.5.7 2 1.8.7 1.1.8 2.5h-3.6q-.1-1-.7-1.6-.6-.5-1.7-.5t-1.6.4-.5 1.1q0 .5.2.7l1 .6 1.8.5q2 .4 3.2 1t1.7 1.5q.6 1 .6 2.3 0 1.6-.8 2.7a5 5 0 0 1-2.2 1.6q-1.5.6-3 .6-3.1 0-4.8-1.3M124.6 153.6q-1.7-1-2.7-2.8t-1-4.2 1-4.2a7 7 0 0 1 2.7-2.7q1.8-1 4.1-1 2.4 0 4.2 1 1.7.9 2.7 2.7.9 1.8.9 4.2t-1 4.2a7 7 0 0 1-2.7 2.8q-1.7 1-4 1-2.5 0-4.2-1m1.2-3.5q1 1.3 3 1.3 1.8 0 3-1.3 1-1.2 1-3.5t-1-3.5a4 4 0 0 0-3-1.3q-2 0-3 1.3-1.1 1.3-1.1 3.5t1 3.5M138.8 139h11.3v2.9h-7.8v3.5h6.8v2.8h-6.8v6h-3.5zM157.8 153.2a5 5 0 0 1-2-4h3.9q0 1.2.8 1.8a3 3 0 0 0 2 .7q1.2 0 1.7-.5t.6-1.2q0-.6-.3-1-.3-.3-1.2-.7l-2.6-.8a7 7 0 0 1-3.2-1.5q-1.2-1-1.1-2.6 0-1.5.7-2.5.8-1 2-1.6 1.5-.6 3.1-.6 2 0 3.2.7 1.4.6 2 1.7t.8 2.6h-3.6q-.2-1-.7-1.6-.6-.6-1.7-.6t-1.6.5-.5 1q0 .6.2.8l1 .5q.5.3 1.8.5 2 .4 3.2 1 1 .7 1.7 1.5.6 1 .6 2.4 0 1.5-.8 2.6a5 5 0 0 1-2.2 1.7q-1.5.6-3 .6-3.1 0-4.8-1.4M182.8 139l-5.2 9.5v5.7h-3.4v-5.7l-5.2-9.4h3.5l3.4 5.9 3.4-6zM184.3 139h6q2.3 0 4.1 1 1.8.8 2.8 2.5a8 8 0 0 1 1 4.2 8 8 0 0 1-1 4q-1 1.8-2.8 2.6-1.8 1-4.2 1h-5.9zm6 12.4q1.8 0 3.1-1.2t1.3-3.5q0-2.5-1.3-3.6-1.2-1.2-3.2-1.2h-2.4v9.5zM214 139v15.2h-4.6l-5.5-11.1v11.1h-3.4v-15.1h4.7l5.5 11v-11zM228.5 139v2.9h-8.2v3.2h7.2v2.7h-7.2v3.6h8.2v2.8h-11.6v-15.1zM243.8 139l-5.2 9.5v5.7h-3.4v-5.7l-5.2-9.4h3.5l3.4 5.9 3.4-6z"/>
  </g>
</svg>
