<?xml version="1.0" encoding="UTF-8" standalone="no"?><!DOCTYPE svg PUBLIC "-//W3C//DTD SVG 1.1//EN" "http://www.w3.org/Graphics/SVG/1.1/DTD/svg11.dtd"><svg width="100%" height="100%" viewBox="0 0 250 250" version="1.1" xmlns="http://www.w3.org/2000/svg" xmlns:xlink="http://www.w3.org/1999/xlink" xml:space="preserve" xmlns:serif="http://www.serif.com/" style="fill-rule:evenodd;clip-rule:evenodd;stroke-linejoin:round;stroke-miterlimit:2;"><g><path d="M187.858,137.569c-1.834,2.991 -3.909,6.396 -7.302,6.341c-2.17,0.055 -5.324,-1.938 -8.458,-3.267c-3.094,-1.411 -6.527,-2.656 -9.419,-2.691c-5.491,0.035 -8.291,3.688 -10.187,7.112l3.076,4.23c1.313,-2.92 3.495,-6.322 7.111,-6.343c3.857,0.021 6.74,1.762 9.419,3.265c2.716,1.485 5.374,2.732 8.458,2.689c5.138,0.043 7.883,-3.612 10.375,-7.11l-3.073,-4.226Z" style="fill:#fff;fill-rule:nonzero;"/><path d="M22.5,121.942l9.169,0l-0.812,30.001l0.119,-0l13.123,-30.001l10.534,0l0.01,30.001l0.122,-0l11.7,-30.001l8.758,0l-18.549,42.722l-9.883,-0l-0.045,-31.244l-0.118,-0l-14.039,31.244l-9.703,-0l-0.386,-42.722Z" style="fill:#fff;fill-rule:nonzero;"/><path d="M83.955,164.664l3.92,-9.467l12.19,0l0.87,9.467l9.41,-0l-4.847,-42.722l-11.778,0l-18.584,42.722l8.819,-0Zm15.254,-16.036l-8.519,0l7.001,-18.461l0.118,0l1.4,18.461Z" style="fill:#fff;fill-rule:nonzero;"/><path d="M151.872,121.942l-1.506,7.098l-9.942,0l-7.572,35.624l-8.94,-0l7.573,-35.624l-9.94,0l1.512,-7.098l28.815,0Z" style="fill:#fff;fill-rule:nonzero;"/><path d="M206.589,146.971l2.305,0c6.864,0 5.472,4.32 4.393,9.409c-0.593,2.783 -1.447,5.681 -0.814,8.283l8.758,0c-0.453,-1.773 1.08,-9.819 1.658,-12.543c1.634,-7.692 -4.062,-8.167 -5.965,-8.401l0.024,-0.118c6.003,-0.948 9.002,-5.031 10.155,-10.474c1.549,-7.28 -1.527,-11.185 -7.623,-11.185l-16.505,-0l-9.086,42.721l8.939,0l3.761,-17.692Zm3.921,-18.461l3.969,0c2.838,0 4.226,1.539 3.36,5.62c-0.578,2.724 -2.342,6.273 -5.893,6.273l-3.963,-0l2.527,-11.893Z" style="fill:#fff;fill-rule:nonzero;"/><path d="M167.995,149.029l-8.936,0l-3.325,15.635l23.788,0l1.402,-6.568l-14.855,-0l1.926,-9.067Z" style="fill:#fff;fill-rule:nonzero;"/><path d="M164.818,121.942l-2.664,12.531l8.935,-0l1.266,-5.964l14.383,0l1.393,-6.567l-23.313,0Z" style="fill:#fff;fill-rule:nonzero;"/><path d="M91.746,93.135l-6.084,0.339l0,1.339l0.948,-0c0.688,-0 1.224,0.176 1.591,0.522c0.36,0.345 0.543,0.864 0.543,1.54l-0,10.691c-0,0.326 -0.134,0.59 -0.406,0.807c-0.277,0.223 -0.695,0.336 -1.238,0.336l-1.222,-0l-0,1.513l8.835,-0l-0,-1.513l-1.215,-0c-0.6,-0 -1.027,-0.12 -1.277,-0.357c-0.247,-0.233 -0.376,-0.642 -0.376,-1.215l-0,-6.142c-0,-1.692 0.441,-3.081 1.314,-4.135c0.87,-1.045 1.968,-1.576 3.265,-1.576c1.302,-0 2.289,0.52 2.928,1.548c0.457,0.72 0.686,1.858 0.686,3.385l0,10.005l5.934,-0l-0,-1.513l-1.233,-0c-0.598,-0 -1.023,-0.12 -1.267,-0.355c-0.246,-0.233 -0.368,-0.642 -0.368,-1.214l-0,-8.062c-0,-1.161 -0.231,-2.228 -0.681,-3.168c-0.455,-0.944 -1.069,-1.646 -1.826,-2.083c-0.751,-0.436 -1.697,-0.658 -2.801,-0.658c-1.284,-0 -2.452,0.307 -3.469,0.91c-0.94,0.561 -1.77,1.397 -2.482,2.471l-0,-3.42l-0.099,0.005Z" style="fill:#fff;fill-rule:nonzero;"/><path d="M145.569,93.468l-7.082,-0l-0,1.383l0.088,0.005c1.002,0.071 1.674,0.222 2.004,0.453c0.315,0.226 0.472,0.535 0.472,0.942c0,0.554 -0.123,1.126 -0.365,1.702c0,0 -2.864,6.795 -3.392,8.044c-0.173,-0.374 -4.526,-9.748 -4.526,-9.748c-0.062,-0.137 -0.09,-0.28 -0.09,-0.423c0,-0.312 0.111,-0.547 0.334,-0.712c0.238,-0.172 0.698,-0.258 1.361,-0.258l0.836,0l0,-1.388l-8.107,-0l0,1.376l0.082,0.01c0.629,0.081 1.116,0.235 1.443,0.457c0.317,0.221 0.59,0.563 0.809,1.02c0,-0 5.853,12.596 6.228,13.405c-0.841,1.667 -1.453,2.782 -1.815,3.306c-0.409,0.592 -0.853,1.03 -1.324,1.296c-0.473,0.267 -0.893,0.402 -1.263,0.402c-0.083,0 -0.15,-0.012 -0.212,-0.03c0.36,-0.391 0.561,-0.889 0.561,-1.423c0,-1.171 -0.952,-2.126 -2.122,-2.126c-1.258,0 -2.134,0.994 -2.134,2.415c-0,0.857 0.315,1.598 0.91,2.138c0.547,0.503 1.289,0.757 2.189,0.757c1.231,-0 2.397,-0.473 3.475,-1.41c0.915,-0.799 1.854,-2.217 2.788,-4.214c0,-0.003 6.185,-14.255 6.185,-14.255c0.439,-1.027 1.31,-1.609 2.582,-1.736l0.085,-0.009l-0,-1.379Z" style="fill:#fff;fill-rule:nonzero;"/><path d="M62.163,93.468l-7.086,-0l0,1.383l0.092,0.005c1,0.071 1.676,0.222 2.004,0.453c0.314,0.226 0.473,0.535 0.473,0.942c-0,0.552 -0.124,1.126 -0.366,1.702c0,0 -3.236,7.668 -3.393,8.044c-0.171,-0.374 -4.528,-9.748 -4.528,-9.748c-0.058,-0.137 -0.092,-0.28 -0.092,-0.423c0,-0.312 0.115,-0.547 0.341,-0.712c0.234,-0.172 0.695,-0.258 1.36,-0.258l0.834,0l-0,-1.388l-8.107,-0l-0,1.376l0.083,0.01c0.63,0.081 1.115,0.235 1.439,0.457c0.319,0.221 0.595,0.563 0.813,1.02c0,-0 5.851,12.596 6.229,13.405c-0.843,1.667 -1.456,2.782 -1.815,3.306c-0.408,0.592 -0.859,1.03 -1.325,1.296c-0.471,0.267 -0.894,0.402 -1.261,0.402c-0.085,0 -0.154,-0.012 -0.217,-0.03c0.36,-0.391 0.564,-0.889 0.564,-1.423c0,-1.171 -0.952,-2.126 -2.122,-2.126c-1.256,0 -2.138,0.994 -2.138,2.415c0,0.857 0.318,1.598 0.911,2.138c0.552,0.503 1.291,0.757 2.19,0.757c1.232,-0 2.401,-0.473 3.47,-1.41c0.921,-0.799 1.857,-2.217 2.792,-4.214c0.002,-0.003 6.19,-14.255 6.19,-14.255c0.435,-1.027 1.305,-1.609 2.579,-1.736l0.086,-0.009l-0,-1.379Z" style="fill:#fff;fill-rule:nonzero;"/><path d="M25.048,87.394c-1.371,1.365 -2.066,3.142 -2.066,5.279c0,2.054 0.699,3.666 2.075,4.789c0.973,0.789 2.824,1.51 5.494,2.143c2.413,0.568 4.05,1.055 4.867,1.449c0.809,0.389 1.407,0.875 1.774,1.437c0.372,0.563 0.558,1.23 0.558,1.978c-0,1.326 -0.508,2.465 -1.505,3.395c-1.002,0.928 -2.312,1.401 -3.904,1.401c-1.972,-0 -3.769,-0.747 -5.341,-2.216c-1.577,-1.467 -2.603,-3.505 -3.058,-6.055l-0.016,-0.078l-1.288,0l0,9.566l1.254,-0l1.149,-1.401c-0.009,0.004 0.128,-0.116 0.128,-0.116c0.32,-0.226 0.664,-0.272 1.046,-0.138c0.32,0.109 0.628,0.265 0.925,0.462c1.513,0.903 3.229,1.362 5.099,1.362c2.35,-0 4.29,-0.732 5.775,-2.177c1.485,-1.444 2.239,-3.289 2.239,-5.487c-0,-1.231 -0.274,-2.323 -0.817,-3.246c-0.542,-0.919 -1.372,-1.691 -2.47,-2.296c-1.088,-0.602 -3,-1.205 -5.688,-1.798c-1.9,-0.412 -3.209,-0.806 -3.89,-1.162c-0.672,-0.356 -1.187,-0.824 -1.524,-1.387c-0.336,-0.564 -0.508,-1.233 -0.508,-1.986c0,-1.206 0.45,-2.243 1.341,-3.081c0.893,-0.84 2.057,-1.265 3.461,-1.265c1.686,0 3.199,0.619 4.496,1.84c1.305,1.226 2.307,3.203 2.972,5.879l0.02,0.072l1.28,0l-0.086,-9.008l-1.344,-0l-0.593,0.866c-0.143,0.199 -0.277,0.348 -0.402,0.438c-0.318,0.225 -0.66,0.269 -1.046,0.137c-0.318,-0.111 -0.626,-0.266 -0.923,-0.462c-0.441,-0.265 -0.866,-0.482 -1.273,-0.642c-0.925,-0.365 -1.909,-0.55 -2.932,-0.55c-2.129,-0 -3.91,0.693 -5.279,2.058" style="fill:#fff;fill-rule:nonzero;"/><path d="M113.778,95.857c0.829,-1.058 1.86,-1.598 3.063,-1.6c1.21,0.002 2.241,0.542 3.074,1.6c0.822,1.055 1.263,2.658 1.307,4.761l-8.758,-0c0.048,-2.103 0.489,-3.706 1.314,-4.761m-2.58,-0.351c-1.505,1.662 -2.262,3.868 -2.262,6.56c0,2.507 0.77,4.592 2.294,6.202c1.527,1.609 3.432,2.425 5.662,2.425c2.924,0 5.268,-1.363 6.964,-4.053l0.054,-0.094l-1.342,-0.578l-0.046,0.065c-1.288,1.916 -2.93,2.889 -4.874,2.889c-1.527,0 -2.808,-0.578 -3.799,-1.712c-0.85,-0.997 -1.318,-2.736 -1.385,-5.163l11.857,-0l-0.002,-0.096c-0.024,-1.647 -0.247,-3.033 -0.661,-4.118c-0.593,-1.551 -1.494,-2.755 -2.671,-3.584c-1.176,-0.83 -2.592,-1.251 -4.212,-1.251c-2.198,-0 -4.074,0.843 -5.577,2.508" style="fill:#fff;fill-rule:nonzero;"/><path d="M69.216,107.093c-0.749,-1.083 -1.132,-2.987 -1.132,-5.657c-0,-2.461 0.372,-4.228 1.108,-5.258c0.725,-1.02 1.72,-1.535 2.952,-1.535c1.216,0 2.249,0.557 3.077,1.662c0.963,1.264 1.45,3.025 1.45,5.237c-0,2.34 -0.457,4.141 -1.353,5.353c-0.893,1.203 -1.976,1.813 -3.225,1.813c-1.164,0 -2.134,-0.545 -2.877,-1.615m10.409,-21.589l-6.551,0.304l0,1.513l1.279,0c0.79,0 1.374,0.14 1.737,0.413c0.362,0.272 0.537,0.631 0.537,1.097l-0,7.133c-0.591,-0.938 -1.281,-1.672 -2.055,-2.159c-0.854,-0.536 -1.831,-0.808 -2.906,-0.808c-1.751,0 -3.319,0.669 -4.663,1.988c-1.709,1.683 -2.576,3.964 -2.576,6.779c0,2.603 0.678,4.727 2.015,6.315c1.335,1.594 2.981,2.402 4.888,2.402c1.132,0 2.169,-0.31 3.086,-0.922c0.833,-0.558 1.572,-1.387 2.209,-2.443l-0,3.106l6.18,-0.342l0,-1.341l-0.943,0c-0.693,0 -1.228,-0.175 -1.591,-0.52c-0.362,-0.344 -0.545,-0.861 -0.545,-1.538l-0,-20.982l-0.101,0.005Z" style="fill:#fff;fill-rule:nonzero;"/></g></svg>